<?xml version="1.0" encoding="utf-8"?>
<!-- Generator: Adobe Illustrator 26.2.1, SVG Export Plug-In . SVG Version: 6.00 Build 0)  -->
<svg version="1.1" xmlns="http://www.w3.org/2000/svg" xmlns:xlink="http://www.w3.org/1999/xlink" x="0px" y="0px"
	 viewBox="0 0 64 64" style="enable-background:new 0 0 64 64;" xml:space="preserve">
<style type="text/css">
	.st0{fill:#727375;stroke:#000000;stroke-miterlimit:10;}
	.st1{fill:#E4E3E3;stroke:#000000;stroke-miterlimit:10;}
	.st2{fill:none;stroke:#808080;stroke-width:0.25;}
	.st3{fill:none;stroke:#000000;stroke-miterlimit:10;}
	.st4{fill:#5A8C5A;}
	.st5{fill-rule:evenodd;clip-rule:evenodd;fill:#FFFFFF;}
	.st6{fill:#FFFFFF;}
	.st7{fill:#8BAF8C;}
	.st8{fill:#FEFFFF;}
</style>
<g id="oulines" xmlns:cc="http://creativecommons.org/ns#" xmlns:dc="http://purl.org/dc/elements/1.1/" xmlns:inkscape="http://www.inkscape.org/namespaces/inkscape" xmlns:rdf="http://www.w3.org/1999/02/22-rdf-syntax-ns#" xmlns:sodipodi="http://sodipodi.sourceforge.net/DTD/sodipodi-0.dtd" xmlns:svg="http://www.w3.org/2000/svg">
	
		<sodipodi:namedview  bordercolor="#666666" borderopacity="1.0" id="base" inkscape:current-layer="layer1" inkscape:cx="9.3247571" inkscape:cy="53.238203" inkscape:document-rotation="0" inkscape:document-units="px" inkscape:object-paths="true" inkscape:pageopacity="0.0" inkscape:pageshadow="2" inkscape:snap-bbox="true" inkscape:snap-global="true" inkscape:snap-grids="false" inkscape:snap-nodes="true" inkscape:snap-others="false" inkscape:window-height="847" inkscape:window-maximized="0" inkscape:window-width="1252" inkscape:window-x="2225" inkscape:window-y="208" inkscape:zoom="5.0716018" pagecolor="#ffffff" showgrid="false" showguides="false">
		<inkscape:grid  empspacing="4" id="grid2640" type="xygrid"></inkscape:grid>
	</sodipodi:namedview>
	<polygon class="st0" points="32,24.6 32,33.5 38.2,33.5 38.2,43.5 32,43.5 32,39.6 18.4,39.6 18.4,36.1 13.6,36.1 13.6,26.2 
		0.5,26.2 0.5,0.5 21.8,0.5 21.8,17.5 38.2,17.5 38.2,24.6 	"/>
	<polygon class="st1" points="63.5,0.5 63.5,47.9 55.1,47.9 55.1,21.3 47.9,21.3 47.9,43.5 38.2,43.5 38.2,33.5 32,33.5 32,24.6 
		38.2,24.6 38.2,17.5 21.8,17.5 21.8,0.5 	"/>
	<polygon class="st0" points="63.5,47.9 63.5,63.5 17.5,63.5 17.5,55.3 42.8,55.3 42.8,50.2 32,50.2 32,43.5 47.9,43.5 47.9,21.3 
		55.1,21.3 55.1,47.9 	"/>
	<polygon class="st1" points="42.8,50.2 42.8,55.3 17.5,55.3 17.5,63.5 0.5,63.5 0.5,26.2 13.6,26.2 13.6,36.1 18.4,36.1 18.4,39.6 
		32,39.6 32,50.2 	"/>
</g>
<g id="grid">
	<g id="g2324">
		<path id="path1979" class="st2" d="M0,4.6h64"/>
		<path id="path1981" class="st2" d="M0,9.6h64"/>
		<path id="path1983" class="st2" d="M0,14.6h64"/>
		<path id="path1985" class="st2" d="M0,19.6h64"/>
		<path id="path1987" class="st2" d="M0,24.6h64"/>
		<path id="path1989" class="st2" d="M0,29.6h64"/>
		<path id="path1991" class="st2" d="M0,34.6h64"/>
		<path id="path1993" class="st2" d="M0,39.6h64"/>
		<path id="path1995" class="st2" d="M0,44.6h64"/>
		<path id="path1997" class="st2" d="M0,49.6h64"/>
		<path id="path1999" class="st2" d="M0,54.6h64l0,0"/>
		<path id="path2001" class="st2" d="M0,59.6h64"/>
		<path id="path1979-7" class="st2" d="M59.6,0v64"/>
		<path id="path1981-6" class="st2" d="M54.6,0v64"/>
		<path id="path1983-2" class="st2" d="M49.6,0v64"/>
		<path id="path1985-7" class="st2" d="M44.6,0v64"/>
		<path id="path1987-0" class="st2" d="M39.6,0v64"/>
		<path id="path1989-3" class="st2" d="M34.6,0v64"/>
		<path id="path1991-9" class="st2" d="M29.6,0v64"/>
		<path id="path1993-9" class="st2" d="M24.6,0v64"/>
		<path id="path1995-9" class="st2" d="M19.6,0v64"/>
		<path id="path1997-1" class="st2" d="M14.6,0v64"/>
		<path id="path1999-7" class="st2" d="M9.6,0v64l0,0"/>
		<path id="path2001-2" class="st2" d="M4.6,0v64"/>
	</g>
	<rect x="0.5" y="0.5" class="st3" width="63" height="63"/>
</g>
<g id="emblem">
	<g>
		<path class="st4" d="M36.2,29.6h17.8c3.3,0,6,2.7,6,6v17.8c0,3.3-2.7,6-6,6H36.2c-3.3,0-6-2.7-6-6V35.6
			C30.2,32.3,32.9,29.6,36.2,29.6"/>
		<polyline class="st5" points="36.2,44.5 54.1,44.5 36.2,44.5 		"/>
		<path class="st6" d="M36.2,47.5h17.9c1.6,0,3-1.3,3-3s-1.3-3-3-3H36.2c-1.6,0-3,1.3-3,3S34.6,47.5,36.2,47.5"/>
		<polyline class="st5" points="45.2,53.5 45.2,35.6 45.2,53.5 		"/>
		<path class="st6" d="M48.1,53.5V35.6c0-1.6-1.3-3-3-3c-1.6,0-3,1.3-3,3v17.9c0,1.6,1.3,3,3,3C46.8,56.5,48.1,55.1,48.1,53.5"/>
		<path class="st7" d="M45.2,32.6c-10.4,0-11.9,0-11.9,6v6c0-1.6,1.3-3,3-3h6v-6C42.2,33.9,43.5,32.6,45.2,32.6c1.6,0,3,1.3,3,3v6h6
			c1.6,0,3,1.3,3,3l0,0c0,0,0,0,0-6C57.1,32.6,55.6,32.6,45.2,32.6"/>
		<path class="st8" d="M42.2,41.6h-6c-1.6,0-3,1.3-3,3h8.9V41.6 M54.1,41.6h-6v3h8.9C57.1,42.9,55.7,41.6,54.1,41.6"/>
		<path class="st8" d="M45.2,32.6c-1.6,0-3,1.3-3,3v6v3h6v-3v-6C48.1,33.9,46.8,32.6,45.2,32.6"/>
	</g>
</g>
</svg>
