<?xml version="1.0" encoding="utf-8"?>
<!-- Generator: Adobe Illustrator 26.2.1, SVG Export Plug-In . SVG Version: 6.00 Build 0)  -->
<svg version="1.1" xmlns="http://www.w3.org/2000/svg" xmlns:xlink="http://www.w3.org/1999/xlink" x="0px" y="0px"
	 viewBox="0 0 64 64" style="enable-background:new 0 0 64 64;" xml:space="preserve">
<style type="text/css">
	.st0{fill:#727375;stroke:#000000;stroke-miterlimit:10;}
	.st1{fill:#E4E3E3;stroke:#000000;stroke-miterlimit:10;}
	.st2{fill:none;stroke:#808080;stroke-width:0.25;}
	.st3{fill:none;stroke:#000000;stroke-miterlimit:10;}
	.st4{fill:#C4A000;}
	.st5{opacity:0.3;fill-rule:evenodd;clip-rule:evenodd;fill:#FCFFFF;enable-background:new    ;}
	.st6{fill:#FFFFFF;stroke:#FFFFFF;stroke-width:6.387687e-02;stroke-miterlimit:10;}
</style>
<g id="oulines" xmlns:cc="http://creativecommons.org/ns#" xmlns:dc="http://purl.org/dc/elements/1.1/" xmlns:inkscape="http://www.inkscape.org/namespaces/inkscape" xmlns:rdf="http://www.w3.org/1999/02/22-rdf-syntax-ns#" xmlns:sodipodi="http://sodipodi.sourceforge.net/DTD/sodipodi-0.dtd" xmlns:svg="http://www.w3.org/2000/svg">
	
		<sodipodi:namedview  bordercolor="#666666" borderopacity="1.0" id="base" inkscape:current-layer="layer1" inkscape:cx="9.3247571" inkscape:cy="53.238203" inkscape:document-rotation="0" inkscape:document-units="px" inkscape:object-paths="true" inkscape:pageopacity="0.0" inkscape:pageshadow="2" inkscape:snap-bbox="true" inkscape:snap-global="true" inkscape:snap-grids="false" inkscape:snap-nodes="true" inkscape:snap-others="false" inkscape:window-height="847" inkscape:window-maximized="0" inkscape:window-width="1252" inkscape:window-x="2225" inkscape:window-y="208" inkscape:zoom="5.0716018" pagecolor="#ffffff" showgrid="false" showguides="false">
		<inkscape:grid  empspacing="4" id="grid2640" type="xygrid"></inkscape:grid>
	</sodipodi:namedview>
	<polygon class="st0" points="32,24.6 32,33.5 38.2,33.5 38.2,43.5 32,43.5 32,39.6 18.4,39.6 18.4,36.1 13.6,36.1 13.6,26.2 
		0.5,26.2 0.5,0.5 21.8,0.5 21.8,17.5 38.2,17.5 38.2,24.6 	"/>
	<polygon class="st1" points="63.5,0.5 63.5,47.9 55.1,47.9 55.1,21.3 47.9,21.3 47.9,43.5 38.2,43.5 38.2,33.5 32,33.5 32,24.6 
		38.2,24.6 38.2,17.5 21.8,17.5 21.8,0.5 	"/>
	<polygon class="st0" points="63.5,47.9 63.5,63.5 17.5,63.5 17.5,55.3 42.8,55.3 42.8,50.2 32,50.2 32,43.5 47.9,43.5 47.9,21.3 
		55.1,21.3 55.1,47.9 	"/>
	<polygon class="st1" points="42.8,50.2 42.8,55.3 17.5,55.3 17.5,63.5 0.5,63.5 0.5,26.2 13.6,26.2 13.6,36.1 18.4,36.1 18.4,39.6 
		32,39.6 32,50.2 	"/>
</g>
<g id="grid">
	<g id="g2324">
		<path id="path1979" class="st2" d="M0,4.6h64"/>
		<path id="path1981" class="st2" d="M0,9.6h64"/>
		<path id="path1983" class="st2" d="M0,14.6h64"/>
		<path id="path1985" class="st2" d="M0,19.6h64"/>
		<path id="path1987" class="st2" d="M0,24.6h64"/>
		<path id="path1989" class="st2" d="M0,29.6h64"/>
		<path id="path1991" class="st2" d="M0,34.6h64"/>
		<path id="path1993" class="st2" d="M0,39.6h64"/>
		<path id="path1995" class="st2" d="M0,44.6h64"/>
		<path id="path1997" class="st2" d="M0,49.6h64"/>
		<path id="path1999" class="st2" d="M0,54.6h64l0,0"/>
		<path id="path2001" class="st2" d="M0,59.6h64"/>
		<path id="path1979-7" class="st2" d="M59.6,0v64"/>
		<path id="path1981-6" class="st2" d="M54.6,0v64"/>
		<path id="path1983-2" class="st2" d="M49.6,0v64"/>
		<path id="path1985-7" class="st2" d="M44.6,0v64"/>
		<path id="path1987-0" class="st2" d="M39.6,0v64"/>
		<path id="path1989-3" class="st2" d="M34.6,0v64"/>
		<path id="path1991-9" class="st2" d="M29.6,0v64"/>
		<path id="path1993-9" class="st2" d="M24.6,0v64"/>
		<path id="path1995-9" class="st2" d="M19.6,0v64"/>
		<path id="path1997-1" class="st2" d="M14.6,0v64"/>
		<path id="path1999-7" class="st2" d="M9.6,0v64l0,0"/>
		<path id="path2001-2" class="st2" d="M4.6,0v64"/>
	</g>
	<rect x="0.5" y="0.5" class="st3" width="63" height="63"/>
</g>
<g id="emblem">
	<g transform="matrix(.46153811 0 0 .46153811 .230778 16.230778)">
		<path class="st4" d="M78,29h38.6c7.2,0,13,5.8,13,13v38.6c0,7.2-5.8,13-13,13H78c-7.2,0-13-5.8-13-13V42C65,34.8,70.9,29,78,29z"
			/>
		<path class="st5" d="M71.5,61.3h51.7c0,0,0,0,0-12.9S120,35.5,97.4,35.5s-25.8,0-25.8,12.9L71.5,61.3L71.5,61.3z"/>
		<path class="st6" d="M95.8,64v2.3c0,3.1-0.5,5.3-1.9,8c-2.2,4.7-2.4,5.3-2.4,7.1c0,3.5,2.6,6.4,5.7,6.4c3.2,0,5.7-2.9,5.7-6.5
			c0-1.2-0.4-2.8-1.2-4.3c-2.8-5.9-3-6.8-3-10.7V64l1.9,1.2c2.5,1.4,4.4,3.1,6.1,5.5c4,5.4,5.3,6.5,8.5,6.5c3,0,5.4-2.3,5.4-5.3
			c0-3.7-3.1-6.5-7.8-6.8c-5.9-0.4-6.9-0.6-10.7-2.6l-1.9-1.1l1.9-1.1c2.8-1.6,4.8-2.3,7.9-2.4c4.8-0.5,5.2-0.5,6.6-1.1
			c2.4-1.2,4-3.4,4-5.9c0-3.1-2.5-5.5-5.6-5.5c-2.6,0-4.8,1.3-6.7,4.2c-3.4,5-4.1,5.8-7.7,7.9l-1.9,1.2v-2.3c0-3,0.5-5.3,1.9-8
			c2.3-4.8,2.4-5.3,2.4-7c0-3.6-2.6-6.5-5.9-6.5c-3.1,0-5.7,2.9-5.7,6.4c0,1.3,0.4,2.9,1.2,4.4c2.9,6,3.1,6.8,3.1,10.7v2.3l-1.9-1.2
			c-2.8-1.6-4.3-3.1-6.1-5.6c-2.4-3.6-2.4-3.6-3.4-4.6c-1.3-1.2-3.2-1.9-4.8-1.9c-3.2,0-5.7,2.5-5.7,5.5c0,3.7,3,6.4,7.7,6.7
			c6.1,0.4,7.1,0.6,10.8,2.6l1.9,1.1l-1.9,1.2c-2.5,1.4-4.9,2.2-7.9,2.4c-4.7,0.2-5,0.4-6.6,1c-2.4,1.1-4,3.4-4,5.9
			c0,3,2.5,5.5,5.6,5.5c2.6,0,4.9-1.4,6.7-4.2c3.2-4.8,4.2-5.9,7.7-7.9L95.8,64z"/>
	</g>
</g>
</svg>
