<?xml version="1.0" encoding="UTF-8" standalone="no"?>
<!-- Generator: Adobe Illustrator 26.2.1, SVG Export Plug-In . SVG Version: 6.00 Build 0)  -->

<svg
   version="1.1"
   x="0px"
   y="0px"
   viewBox="0 0 64 64"
   style="enable-background:new 0 0 64 64;"
   xml:space="preserve"
   id="svg4"
   sodipodi:docname="deleteplan.svg"
   inkscape:version="1.3.2 (091e20e, 2023-11-25)"
   xmlns:inkscape="http://www.inkscape.org/namespaces/inkscape"
   xmlns:sodipodi="http://sodipodi.sourceforge.net/DTD/sodipodi-0.dtd"
   xmlns="http://www.w3.org/2000/svg"
   xmlns:svg="http://www.w3.org/2000/svg"><defs
   id="defs4" />
<style
   type="text/css"
   id="style1">
	.st0{fill:#727375;stroke:#000000;stroke-miterlimit:10;}
	.st1{fill:#E4E3E3;stroke:#000000;stroke-miterlimit:10;}
	.st2{fill:none;stroke:#808080;stroke-width:0.25;}
	.st3{fill:none;stroke:#000000;stroke-miterlimit:10;}
</style>
<g
   id="SVGRoot">
	
		<sodipodi:namedview
   bordercolor="#666666"
   borderopacity="1.0"
   id="base"
   inkscape:current-layer="svg4"
   inkscape:cx="23.069635"
   inkscape:cy="25.928692"
   inkscape:document-rotation="0"
   inkscape:document-units="px"
   inkscape:object-paths="true"
   inkscape:pageopacity="0.0"
   inkscape:pageshadow="2"
   inkscape:snap-bbox="true"
   inkscape:snap-global="true"
   inkscape:snap-grids="false"
   inkscape:snap-nodes="true"
   inkscape:snap-others="false"
   inkscape:window-height="1266"
   inkscape:window-maximized="0"
   inkscape:window-width="1904"
   inkscape:window-x="2209"
   inkscape:window-y="393"
   inkscape:zoom="5.0716018"
   pagecolor="#ffffff"
   showgrid="false"
   showguides="false"
   inkscape:showpageshadow="2"
   inkscape:pagecheckerboard="0"
   inkscape:deskcolor="#d1d1d1">
		<inkscape:grid
   empspacing="4"
   id="grid2640"
   type="xygrid"
   originx="0"
   originy="0"
   spacingy="1"
   spacingx="1"
   units="px"
   visible="false" />
	</sodipodi:namedview>
	<polygon
   class="st0"
   points="32,24.6 32,33.5 38.2,33.5 38.2,43.5 32,43.5 32,39.6 18.4,39.6 18.4,36.1 13.6,36.1 13.6,26.2    0.5,26.2 0.5,0.5 21.8,0.5 21.8,17.5 38.2,17.5 38.2,24.6  "
   id="polygon1" />
	<polygon
   class="st1"
   points="63.5,0.5 63.5,47.9 55.1,47.9 55.1,21.3 47.9,21.3 47.9,43.5 38.2,43.5 38.2,33.5 32,33.5 32,24.6    38.2,24.6 38.2,17.5 21.8,17.5 21.8,0.5  "
   id="polygon2" />
	<polygon
   class="st0"
   points="63.5,47.9 63.5,63.5 17.5,63.5 17.5,55.3 42.8,55.3 42.8,50.2 32,50.2 32,43.5 47.9,43.5 47.9,21.3    55.1,21.3 55.1,47.9  "
   id="polygon3" />
	<polygon
   class="st1"
   points="42.8,50.2 42.8,55.3 17.5,55.3 17.5,63.5 0.5,63.5 0.5,26.2 13.6,26.2 13.6,36.1 18.4,36.1 18.4,39.6    32,39.6 32,50.2  "
   id="polygon4" />
</g>
<g
   id="Layer_2">
	<g
   id="g2324">
		<path
   id="path1979"
   class="st2"
   d="M0,4.6h64" />
		<path
   id="path1981"
   class="st2"
   d="M0,9.6h64" />
		<path
   id="path1983"
   class="st2"
   d="M0,14.6h64" />
		<path
   id="path1985"
   class="st2"
   d="M0,19.6h64" />
		<path
   id="path1987"
   class="st2"
   d="M0,24.6h64" />
		<path
   id="path1989"
   class="st2"
   d="M0,29.6h64" />
		<path
   id="path1991"
   class="st2"
   d="M0,34.6h64" />
		<path
   id="path1993"
   class="st2"
   d="M0,39.6h64" />
		<path
   id="path1995"
   class="st2"
   d="M0,44.6h64" />
		<path
   id="path1997"
   class="st2"
   d="M0,49.6h64" />
		<path
   id="path1999"
   class="st2"
   d="M0,54.6h64l0,0" />
		<path
   id="path2001"
   class="st2"
   d="M0,59.6h64" />
		<path
   id="path1979-7"
   class="st2"
   d="M59.6,0v64" />
		<path
   id="path1981-6"
   class="st2"
   d="M54.6,0v64" />
		<path
   id="path1983-2"
   class="st2"
   d="M49.6,0v64" />
		<path
   id="path1985-7"
   class="st2"
   d="M44.6,0v64" />
		<path
   id="path1987-0"
   class="st2"
   d="M39.6,0v64" />
		<path
   id="path1989-3"
   class="st2"
   d="M34.6,0v64" />
		<path
   id="path1991-9"
   class="st2"
   d="M29.6,0v64" />
		<path
   id="path1993-9"
   class="st2"
   d="M24.6,0v64" />
		<path
   id="path1995-9"
   class="st2"
   d="M19.6,0v64" />
		<path
   id="path1997-1"
   class="st2"
   d="M14.6,0v64" />
		<path
   id="path1999-7"
   class="st2"
   d="M9.6,0v64l0,0" />
		<path
   id="path2001-2"
   class="st2"
   d="M4.6,0v64" />
	</g>
	<rect
   x="0.5"
   y="0.5"
   class="st3"
   width="63"
   height="63"
   id="rect4" />
</g>
<g
   id="g5"
   transform="matrix(2.9800003,0,0,2.9800003,-11.520007,-12.120004)"><rect
     fill="#d26464"
     height="10.000001"
     rx="2.0114901"
     width="9.999999"
     x="14.000001"
     y="14"
     id="rect1" /><g
     fill="#fcffff"
     fill-rule="evenodd"
     id="g4"
     transform="translate(0,-8)"><path
       d="m 16.87868,29.12132 4.24264,-4.24264"
       stroke="#ffffff"
       stroke-linecap="round"
       stroke-linejoin="round"
       stroke-width="2"
       id="path2" /><path
       d="M 15.000001,27 H 23 c 0,0 0,0 0,-2 0,-2 -0.5,-2 -4,-2 -3.499999,0 -3.999999,0 -3.999999,2 z"
       opacity="0.3"
       id="path3" /><path
       d="m 16.87868,24.87868 4.24264,4.24264"
       stroke="#ffffff"
       stroke-linecap="round"
       stroke-linejoin="round"
       stroke-width="2"
       id="path4" /></g></g></svg>
