<?xml version="1.0" encoding="UTF-8" standalone="no"?>
<svg
   version="1.1"
   viewBox="0 0 24 24"
   id="svg8"
   sodipodi:docname="demographics.svg"
   inkscape:version="1.3.2 (091e20e, 2023-11-25)"
   xml:space="preserve"
   xmlns:inkscape="http://www.inkscape.org/namespaces/inkscape"
   xmlns:sodipodi="http://sodipodi.sourceforge.net/DTD/sodipodi-0.dtd"
   xmlns="http://www.w3.org/2000/svg"
   xmlns:svg="http://www.w3.org/2000/svg"><sodipodi:namedview
     id="namedview8"
     pagecolor="#ffffff"
     bordercolor="#000000"
     borderopacity="0.25"
     inkscape:showpageshadow="2"
     inkscape:pageopacity="0.0"
     inkscape:pagecheckerboard="0"
     inkscape:deskcolor="#d1d1d1"
     showgrid="false"
     inkscape:zoom="9.4835243"
     inkscape:cx="14.287937"
     inkscape:cy="29.524889"
     inkscape:window-width="1368"
     inkscape:window-height="1017"
     inkscape:window-x="3408"
     inkscape:window-y="457"
     inkscape:window-maximized="0"
     inkscape:current-layer="svg8"><inkscape:grid
       id="grid9"
       units="px"
       originx="0"
       originy="0"
       spacingx="1"
       spacingy="1"
       empcolor="#0099e5"
       empopacity="0.30196078"
       color="#0099e5"
       opacity="0.14901961"
       empspacing="5"
       dotted="false"
       gridanglex="30"
       gridanglez="30"
       visible="false" /></sodipodi:namedview><defs
     id="defs1"><style
       id="style1">
      .cls-1 {
        fill: none;
        stroke: #231f20;
        stroke-miterlimit: 10;
      }
    </style></defs><path
     style="fill:#ffdd00;fill-opacity:1;stroke:#fdad17;stroke-width:0.963156;stroke-opacity:1"
     id="path9"
     sodipodi:type="arc"
     sodipodi:cx="11.250088"
     sodipodi:cy="12.5"
     sodipodi:rx="10.518422"
     sodipodi:ry="10.518422"
     sodipodi:start="2.268928"
     sodipodi:end="4.712389"
     sodipodi:arc-type="slice"
     d="M 4.4889765,20.557579 A 10.518422,10.518422 0 0 1 1.3660041,8.9024878 10.518422,10.518422 0 0 1 11.250088,1.9815779 V 12.5 Z" /><path
     style="fill:#ba0c00;fill-opacity:1;stroke:#600c00;stroke-width:0.985622;stroke-opacity:1"
     id="path10"
     sodipodi:type="arc"
     sodipodi:cx="12.749811"
     sodipodi:cy="11.5"
     sodipodi:rx="10.507189"
     sodipodi:ry="10.507189"
     sodipodi:start="4.712389"
     sodipodi:end="0.34906585"
     sodipodi:arc-type="slice"
     d="m 12.749811,0.9928112 a 10.507189,10.507189 0 0 1 8.606985,4.480513 10.507189,10.507189 0 0 1 1.266543,9.6203458 L 12.749811,11.5 Z" /><path
     style="fill:#00ba58;fill-opacity:1;stroke:#005a3a;stroke-width:0.998638;stroke-opacity:1"
     id="path11"
     sodipodi:type="arc"
     sodipodi:cx="11.249662"
     sodipodi:cy="12.5"
     sodipodi:rx="10.500681"
     sodipodi:ry="10.500681"
     sodipodi:start="0.34906585"
     sodipodi:end="2.268928"
     sodipodi:arc-type="slice"
     d="M 21.117075,16.091444 A 10.500681,10.500681 0 0 1 13.967439,22.642879 10.500681,10.500681 0 0 1 4.499955,20.543988 L 11.249662,12.5 Z" /><!-- Generator: Adobe Illustrator 28.7.1, SVG Export Plug-In . SVG Version: 1.2.0 Build 142)  --><g
     id="g5"
     transform="translate(-0.87386744,0.19169467)"><circle
       class="cls-1"
       cx="6.5"
       cy="8.5"
       r="2"
       id="circle5" /><path
       class="cls-1"
       d="m 3,13.3 c 0,-0.9 1.5,-1.7 3.4,-1.7 1.9,0 3.4,0.8 3.4,1.7"
       id="path5" /></g><g
     id="g6"
     transform="translate(0.76772115,-0.40476876)"><circle
       class="cls-1"
       cx="16.9"
       cy="6.6999998"
       r="2"
       id="circle6" /><path
       class="cls-1"
       d="m 13.4,11.5 c 0,-0.9 1.5,-1.7 3.4,-1.7 1.9,0 3.4,0.8 3.4,1.7"
       id="path6" /></g><g
     id="g7"
     transform="translate(-1.8829532,0.53648282)"><circle
       class="cls-1"
       cx="14"
       cy="15.8"
       r="2"
       id="circle7" /><path
       class="cls-1"
       d="m 10.6,20.7 c 0,-0.9 1.5,-1.7 3.4,-1.7 1.9,0 3.4,0.8 3.4,1.7"
       id="path7" /></g></svg>
