<?xml version="1.0" encoding="utf-8"?>
<!-- Generator: Adobe Illustrator 27.7.0, SVG Export Plug-In . SVG Version: 6.00 Build 0)  -->
<svg version="1.1" id="Layer_1" xmlns="http://www.w3.org/2000/svg" xmlns:xlink="http://www.w3.org/1999/xlink" x="0px" y="0px"
	 viewBox="0 0 64 64" style="enable-background:new 0 0 64 64;" xml:space="preserve">
<style type="text/css">
	.st0{fill:#727375;stroke:#000000;stroke-miterlimit:10;}
	.st1{fill:#E4E3E3;stroke:#000000;stroke-miterlimit:10;}
	.st2{fill:none;stroke:#808080;stroke-width:0.25;}
	.st3{fill:none;stroke:#000000;stroke-miterlimit:10;}
	.st4{enable-background:new    ;}
	.st5{fill:#505050;stroke:#505050;stroke-width:0.5048;stroke-linecap:round;stroke-linejoin:round;stroke-miterlimit:2.6923;}
	.st6{fill:#FCE94F;stroke:#8B7617;stroke-width:0.5048;stroke-linecap:round;stroke-linejoin:round;stroke-miterlimit:2.6923;}
	
		.st7{opacity:0.5;fill:none;stroke:#FCFFFF;stroke-width:1.3462;stroke-linejoin:round;stroke-miterlimit:2.6923;enable-background:new    ;}
	
		.st8{opacity:0.25;fill-opacity:0.5882;stroke:#000000;stroke-width:1.3462;stroke-linejoin:round;stroke-miterlimit:2.6923;enable-background:new    ;}
	
		.st9{opacity:0.5;fill:#FCE94F;stroke:#8B7617;stroke-width:0.5048;stroke-linecap:round;stroke-linejoin:round;stroke-miterlimit:2.6923;enable-background:new    ;}
	.st10{fill:#969696;stroke:#969696;stroke-width:0.3365;stroke-linecap:square;stroke-linejoin:round;stroke-miterlimit:2.6923;}
	.st11{fill:#E6E6E6;stroke:#969696;stroke-width:0.3365;stroke-linecap:round;stroke-linejoin:round;stroke-miterlimit:2.6923;}
	.st12{fill:#E6E6E6;stroke:#E6E6E6;stroke-width:0.3365;stroke-linecap:square;stroke-linejoin:round;stroke-miterlimit:2.6923;}
</style>
<g id="SVGRoot" xmlns:cc="http://creativecommons.org/ns#" xmlns:svg="http://www.w3.org/2000/svg" xmlns:sodipodi="http://sodipodi.sourceforge.net/DTD/sodipodi-0.dtd" xmlns:rdf="http://www.w3.org/1999/02/22-rdf-syntax-ns#" xmlns:inkscape="http://www.inkscape.org/namespaces/inkscape" xmlns:dc="http://purl.org/dc/elements/1.1/">
	
		<sodipodi:namedview  bordercolor="#666666" borderopacity="1.0" id="base" inkscape:current-layer="layer1" inkscape:cx="9.3247571" inkscape:cy="53.238203" inkscape:document-rotation="0" inkscape:document-units="px" inkscape:object-paths="true" inkscape:pageopacity="0.0" inkscape:pageshadow="2" inkscape:snap-bbox="true" inkscape:snap-global="true" inkscape:snap-grids="false" inkscape:snap-nodes="true" inkscape:snap-others="false" inkscape:window-height="847" inkscape:window-maximized="0" inkscape:window-width="1252" inkscape:window-x="2225" inkscape:window-y="208" inkscape:zoom="5.0716018" pagecolor="#ffffff" showgrid="false" showguides="false">
		<inkscape:grid  empspacing="4" id="grid2640" type="xygrid"></inkscape:grid>
	</sodipodi:namedview>
	<polygon class="st0" points="32,24.6 32,33.5 38.2,33.5 38.2,43.5 32,43.5 32,39.6 18.4,39.6 18.4,36.1 13.6,36.1 13.6,26.2 
		0.5,26.2 0.5,0.5 21.8,0.5 21.8,17.5 38.2,17.5 38.2,24.6 	"/>
	<polygon class="st1" points="63.5,0.5 63.5,47.9 55.1,47.9 55.1,21.3 47.9,21.3 47.9,43.5 38.2,43.5 38.2,33.5 32,33.5 32,24.6 
		38.2,24.6 38.2,17.5 21.8,17.5 21.8,0.5 	"/>
	<polygon class="st0" points="63.5,47.9 63.5,63.5 17.5,63.5 17.5,55.3 42.8,55.3 42.8,50.2 32,50.2 32,43.5 47.9,43.5 47.9,21.3 
		55.1,21.3 55.1,47.9 	"/>
	<polygon class="st1" points="42.8,50.2 42.8,55.3 17.5,55.3 17.5,63.5 0.5,63.5 0.5,26.2 13.6,26.2 13.6,36.1 18.4,36.1 18.4,39.6 
		32,39.6 32,50.2 	"/>
</g>
<g id="Layer_2_00000098194756507753622380000013434776227247422105_">
	<g id="g2324">
		<path id="path1979" class="st2" d="M0,4.6h64"/>
		<path id="path1981" class="st2" d="M0,9.6h64"/>
		<path id="path1983" class="st2" d="M0,14.6h64"/>
		<path id="path1985" class="st2" d="M0,19.6h64"/>
		<path id="path1987" class="st2" d="M0,24.6h64"/>
		<path id="path1989" class="st2" d="M0,29.6h64"/>
		<path id="path1991" class="st2" d="M0,34.6h64"/>
		<path id="path1993" class="st2" d="M0,39.6h64"/>
		<path id="path1995" class="st2" d="M0,44.6h64"/>
		<path id="path1997" class="st2" d="M0,49.6h64"/>
		<path id="path1999" class="st2" d="M0,54.6h64l0,0"/>
		<path id="path2001" class="st2" d="M0,59.6h64"/>
		<path id="path1979-7" class="st2" d="M59.6,0v64"/>
		<path id="path1981-6" class="st2" d="M54.6,0v64"/>
		<path id="path1983-2" class="st2" d="M49.6,0v64"/>
		<path id="path1985-7" class="st2" d="M44.6,0v64"/>
		<path id="path1987-0" class="st2" d="M39.6,0v64"/>
		<path id="path1989-3" class="st2" d="M34.6,0v64"/>
		<path id="path1991-9" class="st2" d="M29.6,0v64"/>
		<path id="path1993-9" class="st2" d="M24.6,0v64"/>
		<path id="path1995-9" class="st2" d="M19.6,0v64"/>
		<path id="path1997-1" class="st2" d="M14.6,0v64"/>
		<path id="path1999-7" class="st2" d="M9.6,0v64l0,0"/>
		<path id="path2001-2" class="st2" d="M4.6,0v64"/>
	</g>
	<rect x="0.5" y="0.5" class="st3" width="63" height="63"/>
</g>
<g id="g8092" transform="matrix(0.58290926,0.33654275,-0.33654275,0.58290926,12.638737,4.6294758)" class="st4">
	<path id="path8094" inkscape:connector-curvature="0" class="st5" d="M54.8,36.9l17.2,0L63,57L54.8,36.9z"/>
	<path id="path8096" inkscape:connector-curvature="0" class="st6" d="M54.8-11.9l17.2,0l0,48.8l-17.2,0L54.8-11.9z"/>
	<path id="path8098" inkscape:connector-curvature="0" class="st7" d="M62-9.1L62,34"/>
	<path id="path8100" inkscape:connector-curvature="0" class="st8" d="M67.7-9.1l0,43.1"/>
	<path id="path8102" inkscape:connector-curvature="0" class="st9" d="M66.3-9.1l0,46"/>
	<path id="path8104" inkscape:connector-curvature="0" class="st10" d="M64.5,51.9l5.7-14.2l-5.7,0L64.5,51.9z"/>
	<path id="path8106" inkscape:connector-curvature="0" class="st9" d="M59.1-9.1l0,46"/>
	<g id="g8108">
		<path id="path8110" inkscape:connector-curvature="0" class="st11" d="M54.1-15.1l18.6,0v6.3l-18.6,0L54.1-15.1z"/>
		<path id="path8112" inkscape:connector-curvature="0" class="st12" d="M62.3,52.3l-5.7-14.7l5.7,0L62.3,52.3z"/>
	</g>
</g>
</svg>
