<?xml version="1.0" encoding="UTF-8"?>
<svg xmlns="http://www.w3.org/2000/svg" xmlns:svg="http://www.w3.org/2000/svg" xmlns:sodipodi="http://sodipodi.sourceforge.net/DTD/sodipodi-0.dtd" xmlns:rdf="http://www.w3.org/1999/02/22-rdf-syntax-ns#" xmlns:inkscape="http://www.inkscape.org/namespaces/inkscape" xmlns:dc="http://purl.org/dc/elements/1.1/" xmlns:cc="http://creativecommons.org/ns#" version="1.1" viewBox="0 0 64 64">
  <defs>
    <style>
      .cls-1 {
        fill: #727375;
      }

      .cls-1, .cls-2, .cls-3 {
        stroke: #000;
        stroke-miterlimit: 10;
      }

      .cls-4 {
        fill: #c4a000;
      }

      .cls-5 {
        stroke: gray;
        stroke-width: .2px;
      }

      .cls-5, .cls-3, .cls-6 {
        fill: none;
      }

      .cls-7 {
        fill: #fff;
      }

      .cls-2 {
        fill: #e4e3e3;
      }

      .cls-8 {
        fill: #fcffff;
        fill-rule: evenodd;
        isolation: isolate;
        opacity: .3;
      }

      .cls-6 {
        stroke: #fff;
      }
    </style>
  </defs>
  <!-- Generator: Adobe Illustrator 28.7.1, SVG Export Plug-In . SVG Version: 1.2.0 Build 142)  -->
  <g>
    <g id="Layer_1">
      <g id="SVGRoot">
        <sodipodi:namedview id="base" bordercolor="#666666" borderopacity="1.0" inkscape:current-layer="layer1" inkscape:cx="9.3247571" inkscape:cy="53.238203" inkscape:document-rotation="0" inkscape:document-units="px" inkscape:object-paths="true" inkscape:pageopacity="0.0" inkscape:pageshadow="2" inkscape:snap-bbox="true" inkscape:snap-global="true" inkscape:snap-grids="false" inkscape:snap-nodes="true" inkscape:snap-others="false" inkscape:window-height="847" inkscape:window-maximized="0" inkscape:window-width="1252" inkscape:window-x="2225" inkscape:window-y="208" inkscape:zoom="5.0716018" pagecolor="#ffffff" showgrid="false" showguides="false">
          <inkscape:grid id="grid2640" empspacing="4" type="xygrid"/>
        </sodipodi:namedview>
        <polygon class="cls-1" points="32 24.6 32 33.5 38.2 33.5 38.2 43.5 32 43.5 32 39.6 18.4 39.6 18.4 36.1 13.6 36.1 13.6 26.2 .5 26.2 .5 .5 21.8 .5 21.8 17.5 38.2 17.5 38.2 24.6 32 24.6"/>
        <polygon class="cls-2" points="63.5 .5 63.5 47.9 55.1 47.9 55.1 21.3 47.9 21.3 47.9 43.5 38.2 43.5 38.2 33.5 32 33.5 32 24.6 38.2 24.6 38.2 17.5 21.8 17.5 21.8 .5 63.5 .5"/>
        <polygon class="cls-1" points="63.5 47.9 63.5 63.5 17.5 63.5 17.5 55.3 42.8 55.3 42.8 50.2 32 50.2 32 43.5 47.9 43.5 47.9 21.3 55.1 21.3 55.1 47.9 63.5 47.9"/>
        <polygon class="cls-2" points="42.8 50.2 42.8 55.3 17.5 55.3 17.5 63.5 .5 63.5 .5 26.2 13.6 26.2 13.6 36.1 18.4 36.1 18.4 39.6 32 39.6 32 50.2 42.8 50.2"/>
      </g>
      <g id="Layer_2">
        <g id="g2324">
          <path id="path1979" class="cls-5" d="M0,4.6h64"/>
          <path id="path1981" class="cls-5" d="M0,9.6h64"/>
          <path id="path1983" class="cls-5" d="M0,14.6h64"/>
          <path id="path1985" class="cls-5" d="M0,19.6h64"/>
          <path id="path1987" class="cls-5" d="M0,24.6h64"/>
          <path id="path1989" class="cls-5" d="M0,29.6h64"/>
          <path id="path1991" class="cls-5" d="M0,34.6h64"/>
          <path id="path1993" class="cls-5" d="M0,39.6h64"/>
          <path id="path1995" class="cls-5" d="M0,44.6h64"/>
          <path id="path1997" class="cls-5" d="M0,49.6h64"/>
          <path id="path1999" class="cls-5" d="M0,54.6h64"/>
          <path id="path2001" class="cls-5" d="M0,59.6h64"/>
          <path id="path1979-7" class="cls-5" d="M59.6,0v64"/>
          <path id="path1981-6" class="cls-5" d="M54.6,0v64"/>
          <path id="path1983-2" class="cls-5" d="M49.6,0v64"/>
          <path id="path1985-7" class="cls-5" d="M44.6,0v64"/>
          <path id="path1987-0" class="cls-5" d="M39.6,0v64"/>
          <path id="path1989-3" class="cls-5" d="M34.6,0v64"/>
          <path id="path1991-9" class="cls-5" d="M29.6,0v64"/>
          <path id="path1993-9" class="cls-5" d="M24.6,0v64"/>
          <path id="path1995-9" class="cls-5" d="M19.6,0v64"/>
          <path id="path1997-1" class="cls-5" d="M14.6,0v64"/>
          <path id="path1999-7" class="cls-5" d="M9.6,0v64h0"/>
          <path id="path2001-2" class="cls-5" d="M4.6,0v64"/>
        </g>
        <rect class="cls-3" x=".5" y=".5" width="63" height="63"/>
      </g>
      <g>
        <rect class="cls-4" x="30.2" y="29.6" width="29.8" height="29.8" rx="5.4" ry="5.4"/>
        <path class="cls-8" d="M32.9,45.9h24.4v-5.4c0-8.1-2.7-8.1-12.2-8.1s-12.2,0-12.2,8.1v5.4h0Z"/>
        <path class="cls-7" d="M34.6,56.4c1.3-3,2.3-6.3,2.6-10.2l6.3,6.2c-3.6.7-6.3,2.3-8.8,4Z"/>
        <path class="cls-7" d="M39.2,44.3l6.2,6.1,11.5-14.4-3-3.1-14.8,11.4Z"/>
        <path class="cls-6" d="M39.4,50.5l4.9-4.9"/>
      </g>
    </g>
  </g>
</svg>