<?xml version="1.0" encoding="utf-8"?>
<!-- Generator: Adobe Illustrator 26.3.1, SVG Export Plug-In . SVG Version: 6.00 Build 0)  -->
<svg version="1.1" id="Layer_1" xmlns="http://www.w3.org/2000/svg" xmlns:xlink="http://www.w3.org/1999/xlink" x="0px" y="0px"
	 viewBox="0 0 64 64" style="enable-background:new 0 0 64 64;" xml:space="preserve">
<style type="text/css">
	.st0{fill:url(#bristles_00000031165038622608008440000002589950470905137302_);}
	.st1{fill:#828487;}
	.st2{fill:#825D21;}
</style>
<g id="brush_parts">
	
		<linearGradient id="bristles_00000170976143425425398000000017117921395775194252_" gradientUnits="userSpaceOnUse" x1="10.2681" y1="53.4824" x2="44.575" y2="42.5721" gradientTransform="matrix(-0.3816 0.9243 -0.9243 -0.3816 72.2028 14.6089)">
		<stop  offset="0" style="stop-color:#FFF200"/>
		<stop  offset="0.1935" style="stop-color:#C1005A"/>
		<stop  offset="0.3871" style="stop-color:#23772D"/>
		<stop  offset="0.5753" style="stop-color:#F47521"/>
		<stop  offset="0.8011" style="stop-color:#3A56A6"/>
		<stop  offset="1" style="stop-color:#EF80B3"/>
	</linearGradient>
	<path id="bristles" style="fill:url(#bristles_00000170976143425425398000000017117921395775194252_);" d="M19.5,33.8
		c0,0-6.6-6.2-6.8-6C12.5,28,19,34.3,19,34.3L18.4,35c0,0-0.6-0.4-1-0.7c-0.4-0.4-2.3-2.1-2.3-2.1s-1.6-1.8-1.8-1.6
		c-0.2,0.2,4.4,4.6,4.7,4.9c-0.1,0.2-0.5,0.6-0.5,0.6l-1.9-1.7c0,0-5.7-5-5.8-4.9c-0.2,0.2,7.2,7.2,7.2,7.2l-0.6,0.8
		c0,0-9.7-9.5-10-9.1s9.6,9.6,9.6,9.6l-0.5,0.6L12.5,36c0,0-1.2-1.2-1.4-1c-0.2,0.1,1.2,1.3,1.2,1.3l2.9,2.6l-0.3,0.4
		c0,0-1.4-1-2-1.5C12.4,37.3,0.6,25.1,0.6,25.1s5.7,5.1,5.8,5c0.2-0.2-5.2-6.4-5.2-6.4s5.2,4.2,5.4,3.9c0.3-0.3-4-4.7-4-4.7
		s8,6.7,8.2,6.4c0.3-0.3-7.1-8-7.1-8s8,7.1,8.2,6.9c0.2-0.3-7.1-7.7-7.1-7.7s4.7,3.9,5,3.6c0.3-0.3-4.6-5.4-4.6-5.4s9,7,9.3,6.7
		c0.3-0.3-7.9-8-7.9-8s10.8,9.3,11,9.1c0.3-0.3-9.5-10-9.5-10s9.1,8.2,9.4,7.9c0.3-0.3-9-9.4-9-9.4s5.4,4.3,5.6,4.1
		c0.2-0.2-5.2-6-5.2-6s6,5,6.3,4.7s-4.4-5.1-4.4-5.1l6,4.5c0,0,5.3,4.9,5.5,4.7c0.2-0.2-10.2-10.7-10.2-10.7s10.4,9,10.8,8.6
		C23.2,19.5,13,9.4,13,9.4s6.2,5.4,6.5,5c0.3-0.4-5.8-6.8-5.8-6.8s5.7,5,5.9,4.7S15,7.1,15,7.1s7.9,7.1,8.1,6.8
		c0.3-0.3-6.9-7.7-6.9-7.7s10.2,8.5,10.4,8.2c0.3-0.3-9.7-10.5-9.7-10.5l17.3,12.2l-0.6,0.7c0,0-4.1-3.6-4.4-3.4
		c-0.3,0.3,4.2,3.6,4.2,3.6l-0.6,0.8c0,0-11.2-10.3-11.4-10s10.9,10.7,10.9,10.7l-0.9,1.1c0,0-8.4-7.5-8.6-7.3
		c-0.2,0.2,8.2,7.8,8.2,7.8L30.2,21c0,0-3.6-3.4-3.8-3.1c-0.2,0.3,3.5,3.5,3.5,3.5L29.3,22c0,0-7.9-7.3-8.2-7.1
		c-0.3,0.2,7.8,7.5,7.8,7.5l-0.7,0.8c0,0-6.4-5.9-6.6-5.7c-0.3,0.2,6.1,6.3,6.1,6.3l-0.6,0.8c0,0-6.3-5.5-6.5-5.3
		c-0.2,0.2,6.1,5.9,6.1,5.9l-0.9,1.1c0,0-8.1-7.3-8.3-7c-0.2,0.2,7.8,7.6,7.8,7.6l-0.7,0.8c0,0-8.9-8.6-9.2-8.2
		c-0.3,0.3,8.9,8.6,8.9,8.6l-0.8,0.9c0,0-5.2-5.3-5.5-5c-0.2,0.2,5.1,5.4,5.1,5.4l-0.4,0.5c0,0-1.8-1.5-2-1.2
		c-0.2,0.2,1.5,1.8,1.5,1.8l-0.6,0.7c0,0-5.7-5.1-6-4.9c-0.3,0.3,5.5,5.4,5.5,5.4l-0.7,0.9c0,0-0.4-0.5-0.8-0.9
		C19.4,31.1,18,30,18,30s-6.6-6-6.8-5.7C11,24.5,20.1,33,20.1,33 M13.3,37.9L13.3,37.9L13.3,37.9z"/>
	<path id="clamp" d="M38.6,20.3L19.6,43.1c-1.7-1.3-3.4-2.7-4.7-3.9l19.3-23C35.4,17.4,37,18.8,38.6,20.3L38.6,20.3z"/>
	<path id="border" class="st1" d="M42.6,24.5L24.1,46.4c-1.4-0.9-3-2-4.5-3.2l19.1-22.8C40.1,21.7,41.5,23.1,42.6,24.5L42.6,24.5z"
		/>
	<path id="handle" class="st2" d="M28.7,48.3c-1.1,0-2.8-0.8-4.6-1.9l18.5-21.9c1.5,1.8,2.5,3.5,2.4,4.5c-0.5,3.8-5.8,6.6-3,10.1
		c1.6,2,5.9,4.7,9.8,7.4c4.3,3,8.6,6.1,10.2,9c2.6,4.6,0.9,6.2-3.4,4.5c-4.3-1.7-8.5-6.1-11.8-9.2c-2.7-2.6-5.8-6.4-8.4-7.1
		C34.5,41.7,32,48.2,28.7,48.3z"/>
</g>
</svg>
