/* XPM */
static char *paintbrush32[] = {
/* columns rows colors chars-per-pixel */
"32 32 20 1 ",
"  c None",
". c black",
"X c #010101",
"o c #020202",
"O c gray1",
"+ c #040404",
"@ c gray2",
"# c #060606",
"$ c #070707",
"% c gray3",
"& c #090909",
"* c #0B0B0B",
"= c #0C0C0C",
"- c gray5",
"; c gray6",
": c #101010",
"> c #111111",
", c gray7",
"< c #131313",
"1 c #151515",
/* pixels */
"                        -       ",
"                       @@@      ",
"                       @@@@     ",
"                      @@@@@@-   ",
"                     @@@@@@@@@  ",
"                     @@@@@@@@@@ ",
"                    @@@@@@@@@@@-",
"                   -@@@@@@@@@@- ",
"                   @@@@@@@@@@@  ",
"                  @@@@@@@@@@@   ",
"                 -@@@@@@@@@@    ",
"                 @@@@@@@@@@     ",
"                @@@@@@@@@@      ",
"                @@@@@@@@@       ",
"                @@@@@@@@>       ",
"                 >@@@@@-        ",
"           -@@@    @@@@         ",
"          @@@@@@>   @@          ",
"         @@@@@@@@@              ",
"        @@@@@@@@@@@             ",
"       @@@@@@@@@@@@@            ",
"       @@@@@@@@@@@@@            ",
"      -@@@@@@@@@@@@@            ",
"      @@@@@@@@@@@@@@            ",
"      @@@@@@@@@@@@@@            ",
"      @@@@@@@@@@@@@>            ",
"     @@@@@@@@@@@@@@             ",
"     @@@@@@@@@@@@@-             ",
"    @@@@@@@@@@@@@@              ",
"    @@@@@@@@@@@@-               ",
"   @@@@@@@@@@@>                 ",
" @@@@@@@@-                      "
};
