/* XPM */
static char *paintbrush24[] = {
/* columns rows colors chars-per-pixel */
"24 24 6 1 ",
"  c None",
". c black",
"X c #010101",
"o c #020202",
"O c gray2",
"+ c white",
/* pixels */
"                 ++     ",
"                +..++   ",
"                +....+  ",
"               +......+ ",
"               +.......+",
"              +........+",
"             +........+ ",
"             +.......+  ",
"            +.......+   ",
"           +.......+    ",
"           +......+     ",
"         +++++...+      ",
"       ++....++..+      ",
"      +.......+++       ",
"     +........+         ",
"     +.........+        ",
"    +..........+        ",
"    +..........+        ",
"    +..........+        ",
"   +..........+         ",
"   +..........+         ",
"  +.........++          ",
"  +.......++            ",
" +.+++++++              "
};
