<?xml version="1.0" encoding="utf-8"?>
<!-- Generator: Adobe Illustrator 26.2.1, SVG Export Plug-In . SVG Version: 6.00 Build 0)  -->
<svg version="1.1" xmlns="http://www.w3.org/2000/svg" xmlns:xlink="http://www.w3.org/1999/xlink" x="0px" y="0px" viewBox="0 0 64 64" style="enable-background:new 0 0 64 64;" xml:space="preserve">
    <style type="text/css">
	.st0{fill:#727375;stroke:#000000;stroke-miterlimit:10;}
	.st1{fill:#E4E3E3;stroke:#000000;stroke-miterlimit:10;}
	.st2{fill:none;stroke:#808080;stroke-width:0.25;}
	.st3{fill:none;stroke:#000000;stroke-miterlimit:10;}
	
		.st4{fill:url(#path6937_00000070822779014724891000000014498735489865564589_);stroke:#673907;stroke-width:1.3118;stroke-linecap:round;}
	
		.st5{fill:url(#path6935_00000026881172324749552030000011419979059139494307_);stroke:#888A85;stroke-width:1.3118;stroke-linecap:round;}
	.st6{opacity:0.3;fill:url(#path6973_00000022538367690524166220000016585179620011059076_);enable-background:new    ;}
	.st7{fill:url(#path6933_00000013877695901272371860000001762181282629247360_);}
	.st8{opacity:0.5278;fill:#FFFFFF;enable-background:new    ;}
	.st9{fill:#FFFFFF;}
	.st10{fill:none;stroke:#FFFFFF;stroke-width:1.3118;stroke-linecap:round;stroke-linejoin:round;}
	.st11{opacity:0.4278;fill:url(#path1571_00000013166493231617546360000006432218073723865270_);enable-background:new    ;}
	.st12{opacity:0.5333;fill:#FFFFFF;enable-background:new    ;}
</style>
    <g id="Layer_1">

        <g id="SVGRoot" xmlns:cc="http://creativecommons.org/ns#" xmlns:dc="http://purl.org/dc/elements/1.1/" xmlns:rdf="http://www.w3.org/1999/02/22-rdf-syntax-ns#" xmlns:svg="http://www.w3.org/2000/svg">
            <polygon class="st0" points="32,24.6 32,33.5 38.2,33.5 38.2,43.5 32,43.5 32,39.6 18.4,39.6 18.4,36.1 13.6,36.1 13.6,26.2 
			0.5,26.2 0.5,0.5 21.8,0.5 21.8,17.5 38.2,17.5 38.2,24.6 		" />
            <polygon class="st1" points="63.5,0.5 63.5,47.9 55.1,47.9 55.1,21.3 47.9,21.3 47.9,43.5 38.2,43.5 38.2,33.5 32,33.5 32,24.6 
			38.2,24.6 38.2,17.5 21.8,17.5 21.8,0.5 		" />
            <polygon class="st0" points="63.5,47.9 63.5,63.5 17.5,63.5 17.5,55.3 42.8,55.3 42.8,50.2 32,50.2 32,43.5 47.9,43.5 47.9,21.3 
			55.1,21.3 55.1,47.9 		" />
            <polygon class="st1" points="42.8,50.2 42.8,55.3 17.5,55.3 17.5,63.5 0.5,63.5 0.5,26.2 13.6,26.2 13.6,36.1 18.4,36.1 
			18.4,39.6 32,39.6 32,50.2 		" />
        </g>
        <g id="Layer_2_00000021819362428007406210000004885294823421886864_">
            <g id="g2324">
                <path id="path1979" class="st2" d="M0,4.6h64" />
                <path id="path1981" class="st2" d="M0,9.6h64" />
                <path id="path1983" class="st2" d="M0,14.6h64" />
                <path id="path1985" class="st2" d="M0,19.6h64" />
                <path id="path1987" class="st2" d="M0,24.6h64" />
                <path id="path1989" class="st2" d="M0,29.6h64" />
                <path id="path1991" class="st2" d="M0,34.6h64" />
                <path id="path1993" class="st2" d="M0,39.6h64" />
                <path id="path1995" class="st2" d="M0,44.6h64" />
                <path id="path1997" class="st2" d="M0,49.6h64" />
                <path id="path1999" class="st2" d="M0,54.6h64l0,0" />
                <path id="path2001" class="st2" d="M0,59.6h64" />
                <path id="path1979-7" class="st2" d="M59.6,0v64" />
                <path id="path1981-6" class="st2" d="M54.6,0v64" />
                <path id="path1983-2" class="st2" d="M49.6,0v64" />
                <path id="path1985-7" class="st2" d="M44.6,0v64" />
                <path id="path1987-0" class="st2" d="M39.6,0v64" />
                <path id="path1989-3" class="st2" d="M34.6,0v64" />
                <path id="path1991-9" class="st2" d="M29.6,0v64" />
                <path id="path1993-9" class="st2" d="M24.6,0v64" />
                <path id="path1995-9" class="st2" d="M19.6,0v64" />
                <path id="path1997-1" class="st2" d="M14.6,0v64" />
                <path id="path1999-7" class="st2" d="M9.6,0v64l0,0" />
                <path id="path2001-2" class="st2" d="M4.6,0v64" />
            </g>
            <rect x="0.5" y="0.5" class="st3" width="63" height="63" />
        </g>
    </g>
    <g id="brush">
        <g>

            <linearGradient id="path6937_00000107547438363634850170000000136531636070682801_" gradientUnits="userSpaceOnUse" x1="-186.8808" y1="173.5651" x2="-181.5028" y2="168.6901" gradientTransform="matrix(1.3118 0 0 -1.3118 290.9207 246.8714)">
                <stop offset="0" style="stop-color:#6E3D09" />
                <stop offset="0.2424" style="stop-color:#EA8113" />
                <stop offset="0.6212" style="stop-color:#5C3307" />
                <stop offset="1" style="stop-color:#E07C12" />
            </linearGradient>

            <path id="path6937" style="fill:url(#path6937_00000107547438363634850170000000136531636070682801_);stroke:#673907;stroke-width:1.3118;stroke-linecap:round;" d="
			M32.8,34.2l5.3,5c9.4-9.3,23.3-31.5,23.3-31.5c0.6-1.6-1.4-2.6-2.4-1.5C59.1,6.2,41.1,24.7,32.8,34.2L32.8,34.2z" />

            <linearGradient id="path6935_00000117653700849045930530000005044367251823767728_" gradientUnits="userSpaceOnUse" x1="-200.2211" y1="157.2572" x2="-196.5072" y2="153.8192" gradientTransform="matrix(1.3118 0 0 -1.3118 290.9207 246.8714)">
                <stop offset="0" style="stop-color:#BDBDBD" />
                <stop offset="0.3333" style="stop-color:#E2E2E2" />
                <stop offset="0.6667" style="stop-color:#A3A3A3" />
                <stop offset="1" style="stop-color:#DDDDDD" />
            </linearGradient>

            <path id="path6935" style="fill:url(#path6935_00000117653700849045930530000005044367251823767728_);stroke:#888A85;stroke-width:1.3118;stroke-linecap:round;" d="
			M22.8,47.6l2.9,2.5l11.1-9.7l0.4-0.9l1.4,0c-0.6-2-3.9-5.7-6.3-5.7l0.1,1.4l-0.9,0.5L22.8,47.6z" />

            <radialGradient id="path6973_00000166656113756906569230000001262475845268859048_" cx="-372.2144" cy="-838.8947" r="14.4073" gradientTransform="matrix(1.7557 0 0 -0.3702 680.0928 -254.887)" gradientUnits="userSpaceOnUse">
                <stop offset="0" style="stop-color:#000000" />
                <stop offset="1" style="stop-color:#000000;stop-opacity:0" />
            </radialGradient>

            <ellipse id="path6973" style="opacity:0.3;fill:url(#path6973_00000166656113756906569230000001262475845268859048_);enable-background:new    ;" cx="26.6" cy="55.7" rx="25.3" ry="5.3"></ellipse>

            <radialGradient id="path6933_00000101798106770726162650000018096957810132477088_" cx="-201.1105" cy="138.9082" r="7.5792" gradientTransform="matrix(1.3048 0 0 -1.2715 283.5404 226.3936)" gradientUnits="userSpaceOnUse">
                <stop offset="0" style="stop-color:#B41E1E" />
                <stop offset="1" style="stop-color:#580022" />
            </radialGradient>

            <path id="path6933" style="fill:url(#path6933_00000101798106770726162650000018096957810132477088_);" d="
			M9.3,58c8.7,0,15.2,1,16.5-5.3c1-5.1-6-7.5-9.4-3C13.1,54.1,9.3,58,9.3,58L9.3,58z" />
            <circle id="path6971" class="st8" cx="20.5" cy="50.2" r="1.4"></circle>
            <circle id="path6983" class="st9" cx="33.6" cy="37.4" r="1.3"></circle>
            <path id="path6985" class="st10" d="M31.9,39.2l-7,8.1" />

            <linearGradient id="path1571_00000047743738739557794850000006218383954321941890_" gradientUnits="userSpaceOnUse" x1="-84.9838" y1="82.2093" x2="-90.4677" y2="77.6793" gradientTransform="matrix(1.118 0 0 -1.118 114.244 143.1431)">
                <stop offset="0" style="stop-color:#FFFFFF" />
                <stop offset="1" style="stop-color:#FFFFFF;stop-opacity:0" />
            </linearGradient>

            <path id="path1571" style="opacity:0.4278;fill:url(#path1571_00000047743738739557794850000006218383954321941890_);enable-background:new    ;" d="
			M11.1,57.2c0,0,4.4-2.2,6.3-5.4c0.7-1.1,2.2-0.2,1.2,1C16.6,55.2,11.1,57.2,11.1,57.2z" />
            <circle id="path2454" class="st12" cx="59.8" cy="7.1" r="0.4"></circle>
        </g>
    </g>
</svg>