<?xml version="1.0" encoding="UTF-8" standalone="no"?>
<!-- Created with Inkscape (http://www.inkscape.org/) -->

<svg
   width="24"
   height="24"
   viewBox="0 0 6.3500002 6.3500002"
   version="1.1"
   id="svg1"
   inkscape:version="1.3.2 (091e20e, 2023-11-25)"
   sodipodi:docname="population.svg"
   xmlns:inkscape="http://www.inkscape.org/namespaces/inkscape"
   xmlns:sodipodi="http://sodipodi.sourceforge.net/DTD/sodipodi-0.dtd"
   xmlns="http://www.w3.org/2000/svg"
   xmlns:svg="http://www.w3.org/2000/svg">
  <sodipodi:namedview
     id="namedview1"
     pagecolor="#ffffff"
     bordercolor="#000000"
     borderopacity="0.25"
     inkscape:showpageshadow="2"
     inkscape:pageopacity="0.0"
     inkscape:pagecheckerboard="0"
     inkscape:deskcolor="#d1d1d1"
     inkscape:document-units="mm"
     inkscape:zoom="8.3467133"
     inkscape:cx="27.555757"
     inkscape:cy="20.307395"
     inkscape:window-width="1312"
     inkscape:window-height="674"
     inkscape:window-x="2670"
     inkscape:window-y="596"
     inkscape:window-maximized="0"
     inkscape:current-layer="layer1" />
  <defs
     id="defs1" />
  <g
     inkscape:label="Layer 1"
     inkscape:groupmode="layer"
     id="layer1">
    <g
       id="g1"
       transform="translate(2.61235e-4,-1.6242161e-5)">
      <path
         d="M 1.4377493,2.2648659 A 0.26458333,0.26458333 0 0 1 1.3028118,2.2278242 1.0424583,1.0424583 0 0 1 0.79216593,1.3229493 1.0583333,1.0583333 0 0 1 1.8504993,0.26461596 1.0424583,1.0424583 0 0 1 2.7553743,0.77526183 0.267978,0.267978 0 0 1 2.3002909,1.0583659 0.52916666,0.52916666 0 0 0 1.8504993,0.79378263 0.52916666,0.52916666 0 0 0 1.3213326,1.3229493 0.52916666,0.52916666 0 0 0 1.5859159,1.7727409 0.26458333,0.26458333 0 0 1 1.4509784,2.2648659 Z"
         id="path1"
         style="fill:#fdad17;fill-opacity:1;stroke-width:0.264583" />
      <path
         d="m 0.94033263,4.5879076 v 0 a 0.24870833,0.24870833 0 0 1 -0.097896,-0.018521 0.93662499,0.93662499 0 0 1 0,-1.730375 A 2.6643541,2.6643541 0 0 1 1.3001657,2.7014283 0.26982314,0.26982314 0 0 1 1.4059991,3.230595 1.9473333,1.9473333 0 0 0 1.0382282,3.34172 a 0.40745833,0.40745833 0 0 0 0,0.7434791 0.26458333,0.26458333 0 0 1 -0.089958,0.5132917 z"
         id="path2"
         style="fill:#fdad17;fill-opacity:1;stroke-width:0.264583" />
      <path
         d="M 4.9090826,2.2648659 A 0.26458333,0.26458333 0 0 1 4.7741451,1.7727409 0.52916666,0.52916666 0 0 0 5.0254992,1.3229493 0.52916666,0.52916666 0 0 0 4.4963326,0.79378263 0.52916666,0.52916666 0 0 0 4.0465409,1.0583659 0.26458333,0.26458333 0 1 1 3.5914576,0.79378263 1.0424583,1.0424583 0 0 1 4.4963326,0.26461596 1.0583333,1.0583333 0 0 1 5.5546659,1.3229493 1.0424583,1.0424583 0 0 1 5.0440201,2.2278242 0.26458333,0.26458333 0 0 1 4.9090826,2.2648659 Z"
         id="path3"
         style="fill:#600c00;fill-opacity:1;stroke-width:0.264583" />
      <path
         d="M 5.4091451,4.5879076 A 0.26458333,0.26458333 0 0 1 5.1445617,4.3233242 0.26458333,0.26458333 0 0 1 5.3271242,4.0719701 0.396875,0.396875 0 0 0 5.5546659,3.7041992 0.3889375,0.3889375 0 0 0 5.3112492,3.3311367 1.9473333,1.9473333 0 0 0 4.9434784,3.2200117 0.26982311,0.26982311 0 1 1 5.0493117,2.6908451 a 2.6643541,2.6643541 0 0 1 0.4577292,0.1375833 0.93662499,0.93662499 0 0 1 0,1.730375 0.24870833,0.24870833 0 0 1 -0.097896,0.029104 z m 0,-0.2645834 z"
         id="path4"
         style="fill:#600c00;fill-opacity:1;stroke-width:0.264583" />
      <path
         d="M 3.1734159,3.7041992 A 1.0583333,1.0583333 0 1 1 4.2317492,2.6458659 1.0583333,1.0583333 0 0 1 3.1734159,3.7041992 Z m 0,-1.5874999 A 0.52916666,0.52916666 0 1 0 3.7025826,2.6458659 0.52916666,0.52916666 0 0 0 3.1734159,2.1166993 Z"
         id="path5"
         style="fill:#005a3a;fill-opacity:1;stroke-width:0.264583" />
      <path
         d="m 3.1734159,6.0854492 a 2.7569583,2.7569583 0 0 1 -1.0107083,-0.1931458 0.93662499,0.93662499 0 0 1 0,-1.730375 2.7490208,2.7490208 0 0 1 2.0214166,0 0.93662499,0.93662499 0 0 1 0,1.730375 2.746375,2.746375 0 0 1 -1.0107083,0.1931458 z m 0,-1.5875 a 2.1986875,2.1986875 0 0 0 -0.8149166,0.1561042 0.40745833,0.40745833 0 0 0 0,0.746125 2.2225,2.2225 0 0 0 1.6298333,0 0.40745833,0.40745833 0 0 0 0,-0.746125 2.1986875,2.1986875 0 0 0 -0.8149167,-0.1561042 z"
         id="path6"
         style="fill:#005a3a;fill-opacity:1;stroke-width:0.264583" />
    </g>
  </g>
</svg>
