<?xml version="1.0" encoding="utf-8"?>
<!-- Generator: Adobe Illustrator 26.2.1, SVG Export Plug-In . SVG Version: 6.00 Build 0)  -->
<svg version="1.1" id="Layer_1" xmlns="http://www.w3.org/2000/svg" xmlns:xlink="http://www.w3.org/1999/xlink" x="0px" y="0px"
	 viewBox="0 0 64 64" style="enable-background:new 0 0 64 64;" xml:space="preserve">
<style type="text/css">
	.st0{fill:#727375;stroke:#000000;stroke-miterlimit:10;}
	.st1{fill:#E4E3E3;stroke:#000000;stroke-miterlimit:10;}
	.st2{fill:none;stroke:#808080;stroke-width:0.25;}
	.st3{fill:none;stroke:#000000;stroke-miterlimit:10;}
	.st4{opacity:0.4;fill:url(#path2658_00000083077125900517812730000013024512537874159753_);enable-background:new    ;}
	.st5{opacity:0.1;fill:#030303;enable-background:new    ;}
	
		.st6{fill:url(#path2662_00000113318610841528952350000018056334627577928325_);stroke:#262626;stroke-width:2.242;stroke-linecap:round;stroke-linejoin:round;}
	
		.st7{fill:url(#path2664_00000074402666083491178010000016444971025511146882_);stroke:url(#path2664_00000016061975635452548860000000344572462968852883_);stroke-width:0.8471;}
	
		.st8{fill:url(#path2666_00000128484162527268470630000003142326578397852582_);stroke:url(#path2666_00000064331499804443145330000001437470042582382489_);stroke-width:0.8471;}
	.st9{fill:#6D97C4;stroke:#000000;stroke-width:0.7663;stroke-linecap:round;stroke-linejoin:round;}
</style>
<g id="oulines" xmlns:cc="http://creativecommons.org/ns#" xmlns:dc="http://purl.org/dc/elements/1.1/" xmlns:inkscape="http://www.inkscape.org/namespaces/inkscape" xmlns:rdf="http://www.w3.org/1999/02/22-rdf-syntax-ns#" xmlns:sodipodi="http://sodipodi.sourceforge.net/DTD/sodipodi-0.dtd" xmlns:svg="http://www.w3.org/2000/svg">
	
		<sodipodi:namedview  bordercolor="#666666" borderopacity="1.0" id="base" inkscape:current-layer="layer1" inkscape:cx="9.3247571" inkscape:cy="53.238203" inkscape:document-rotation="0" inkscape:document-units="px" inkscape:object-paths="true" inkscape:pageopacity="0.0" inkscape:pageshadow="2" inkscape:snap-bbox="true" inkscape:snap-global="true" inkscape:snap-grids="false" inkscape:snap-nodes="true" inkscape:snap-others="false" inkscape:window-height="847" inkscape:window-maximized="0" inkscape:window-width="1252" inkscape:window-x="2225" inkscape:window-y="208" inkscape:zoom="5.0716018" pagecolor="#ffffff" showgrid="false" showguides="false">
		<inkscape:grid  empspacing="4" id="grid2640" type="xygrid"></inkscape:grid>
	</sodipodi:namedview>
	<polygon class="st0" points="32,24.6 32,33.5 38.2,33.5 38.2,43.5 32,43.5 32,39.6 18.4,39.6 18.4,36.1 13.6,36.1 13.6,26.2 
		0.5,26.2 0.5,0.5 21.8,0.5 21.8,17.5 38.2,17.5 38.2,24.6 	"/>
	<polygon class="st1" points="63.5,0.5 63.5,47.9 55.1,47.9 55.1,21.3 47.9,21.3 47.9,43.5 38.2,43.5 38.2,33.5 32,33.5 32,24.6 
		38.2,24.6 38.2,17.5 21.8,17.5 21.8,0.5 	"/>
	<polygon class="st0" points="63.5,47.9 63.5,63.5 17.5,63.5 17.5,55.3 42.8,55.3 42.8,50.2 32,50.2 32,43.5 47.9,43.5 47.9,21.3 
		55.1,21.3 55.1,47.9 	"/>
	<polygon class="st1" points="42.8,50.2 42.8,55.3 17.5,55.3 17.5,63.5 0.5,63.5 0.5,26.2 13.6,26.2 13.6,36.1 18.4,36.1 18.4,39.6 
		32,39.6 32,50.2 	"/>
</g>
<g id="grid">
	<g id="g2324">
		<path id="path1979" class="st2" d="M0,4.6h64"/>
		<path id="path1981" class="st2" d="M0,9.6h64"/>
		<path id="path1983" class="st2" d="M0,14.6h64"/>
		<path id="path1985" class="st2" d="M0,19.6h64"/>
		<path id="path1987" class="st2" d="M0,24.6h64"/>
		<path id="path1989" class="st2" d="M0,29.6h64"/>
		<path id="path1991" class="st2" d="M0,34.6h64"/>
		<path id="path1993" class="st2" d="M0,39.6h64"/>
		<path id="path1995" class="st2" d="M0,44.6h64"/>
		<path id="path1997" class="st2" d="M0,49.6h64"/>
		<path id="path1999" class="st2" d="M0,54.6h64l0,0"/>
		<path id="path2001" class="st2" d="M0,59.6h64"/>
		<path id="path1979-7" class="st2" d="M59.6,0v64"/>
		<path id="path1981-6" class="st2" d="M54.6,0v64"/>
		<path id="path1983-2" class="st2" d="M49.6,0v64"/>
		<path id="path1985-7" class="st2" d="M44.6,0v64"/>
		<path id="path1987-0" class="st2" d="M39.6,0v64"/>
		<path id="path1989-3" class="st2" d="M34.6,0v64"/>
		<path id="path1991-9" class="st2" d="M29.6,0v64"/>
		<path id="path1993-9" class="st2" d="M24.6,0v64"/>
		<path id="path1995-9" class="st2" d="M19.6,0v64"/>
		<path id="path1997-1" class="st2" d="M14.6,0v64"/>
		<path id="path1999-7" class="st2" d="M9.6,0v64l0,0"/>
		<path id="path2001-2" class="st2" d="M4.6,0v64"/>
	</g>
	<rect x="0.5" y="0.5" class="st3" width="63" height="63"/>
</g>
<g id="g4204">
	
		<radialGradient id="path2658_00000096762368399429909290000010537042378167066004_" cx="-560.8771" cy="-117.5575" r="7.2285" gradientTransform="matrix(2.5792 0 0 -0.8218 1489.8646 -38.2193)" gradientUnits="userSpaceOnUse">
		<stop  offset="0" style="stop-color:#000000"/>
		<stop  offset="1" style="stop-color:#000000;stop-opacity:0"/>
	</radialGradient>
	
		<path id="path2658" style="opacity:0.4;fill:url(#path2658_00000096762368399429909290000010537042378167066004_);enable-background:new    ;" d="
		M61.9,58.4c0,3.3-8.3,5.9-18.6,5.9s-18.6-2.7-18.6-5.9c0-3.3,8.3-5.9,18.6-5.9S61.9,55.1,61.9,58.4z"/>
	<path id="path2660" class="st5" d="M60.3,39.1h-1.4c-0.4,0-0.8-0.3-1-0.7c0,0-0.9-2.2-0.9-2.2c-0.2-0.4-0.1-0.9,0.2-1.2l1-1
		c0.2-0.2,0.4-0.5,0.4-0.9c0-0.3-0.1-0.6-0.4-0.9l-4-4c-0.2-0.2-0.5-0.4-0.9-0.4c-0.3,0-0.6,0.1-0.9,0.4l-1,1
		c-0.3,0.3-0.8,0.4-1.2,0.2c0,0-2.2-0.9-2.2-0.9c-0.4-0.1-0.7-0.6-0.7-1v-1.4c0-0.7-0.6-1.2-1.2-1.2h-5.7c-0.7,0-1.2,0.6-1.2,1.2
		v1.4c0,0.4-0.3,0.8-0.7,1c0,0-2.2,0.9-2.2,0.9c-0.4,0.2-0.9,0.1-1.2-0.2l-1-1c-0.2-0.2-0.5-0.4-0.9-0.4c-0.3,0-0.6,0.1-0.9,0.4
		l-4,4c-0.5,0.5-0.5,1.3,0,1.8l1,1c0.3,0.3,0.4,0.8,0.2,1.2c0,0-0.9,2.2-0.9,2.2c-0.1,0.4-0.6,0.7-1,0.7h-1.1
		c-0.7,0-1.6,0.6-1.6,1.2V46c0,0.7,0.6,1.2,1.2,1.2h1.4c0.4,0,0.8,0.3,1,0.7c0,0,0.9,2.2,0.9,2.2c0.2,0.4,0.1,0.9-0.2,1.2l-1,1
		c-0.5,0.5-0.5,1.3,0,1.8l4,4c0.2,0.2,0.5,0.4,0.9,0.4c0.3,0,0.6-0.1,0.9-0.4l1-1c0.3-0.3,0.8-0.4,1.2-0.2c0,0,2.2,0.9,2.2,0.9
		c0.4,0.1,0.7,0.6,0.7,1v1.4c0,0.7,0.6,1.2,1.2,1.2h5.7c0.7,0,1.2-0.6,1.2-1.2v-1.4c0-0.4,0.3-0.8,0.7-1c0,0,2.2-0.9,2.2-0.9
		c0.4-0.2,0.9-0.1,1.2,0.2l1,1c0.2,0.2,0.5,0.4,0.9,0.4c0.3,0,0.6-0.1,0.9-0.4l4-4c0.2-0.2,0.4-0.5,0.4-0.9c0-0.3-0.1-0.6-0.4-0.9
		l-1-1c-0.3-0.3-0.4-0.8-0.2-1.2c0,0,0.9-2.2,0.9-2.2c0.1-0.4,0.6-0.7,1-0.7h1.4c0.7,0,1.2-0.6,1.2-1.2v-5.7
		C61.5,39.6,60.9,39.1,60.3,39.1L60.3,39.1z M43.3,48.4c-2.9,0-5.3-2.4-5.3-5.3s2.4-5.3,5.3-5.3c2.9,0,5.3,2.4,5.3,5.3
		C48.6,46.1,46.2,48.4,43.3,48.4z"/>
	
		<linearGradient id="path2662_00000160907893871146924430000017278792733989261445_" gradientUnits="userSpaceOnUse" x1="2054.0547" y1="-1029.2852" x2="2054.0547" y2="-1139.6409" gradientTransform="matrix(0.3178 0 0 -0.3178 -609.4747 -301.2556)">
		<stop  offset="0" style="stop-color:#F2F2F2"/>
		<stop  offset="1" style="stop-color:#D8D8D8"/>
	</linearGradient>
	
		<path id="path2662" style="fill:url(#path2662_00000160907893871146924430000017278792733989261445_);stroke:#262626;stroke-width:2.242;stroke-linecap:round;stroke-linejoin:round;" d="
		M60.3,39.1h-1.4c-0.4,0-0.8-0.3-1-0.7c0,0-0.9-2.2-0.9-2.2c-0.2-0.4-0.1-0.9,0.2-1.2l1-1c0.2-0.2,0.4-0.5,0.4-0.9
		c0-0.3-0.1-0.6-0.4-0.9l-4-4c-0.2-0.2-0.5-0.4-0.9-0.4c-0.3,0-0.6,0.1-0.9,0.4l-1,1c-0.3,0.3-0.8,0.4-1.2,0.2c0,0-2.2-0.9-2.2-0.9
		c-0.4-0.1-0.7-0.6-0.7-1v-1.4c0-0.7-0.6-1.2-1.2-1.2h-5.7c-0.7,0-1.2,0.6-1.2,1.2v1.4c0,0.4-0.3,0.8-0.7,1c0,0-2.2,0.9-2.2,0.9
		c-0.4,0.2-0.9,0.1-1.2-0.2l-1-1c-0.2-0.2-0.5-0.4-0.9-0.4c-0.3,0-0.6,0.1-0.9,0.4l-4,4c-0.5,0.5-0.5,1.3,0,1.8l1,1
		c0.3,0.3,0.4,0.8,0.2,1.2c0,0-0.9,2.2-0.9,2.2c-0.1,0.4-0.6,0.7-1,0.7h-1.1c-0.7,0-1.6,0.6-1.6,1.2V46c0,0.7,0.6,1.2,1.2,1.2h1.4
		c0.4,0,0.8,0.3,1,0.7c0,0,0.9,2.2,0.9,2.2c0.2,0.4,0.1,0.9-0.2,1.2l-1,1c-0.5,0.5-0.5,1.3,0,1.8l4,4c0.2,0.2,0.5,0.4,0.9,0.4
		c0.3,0,0.6-0.1,0.9-0.4l1-1c0.3-0.3,0.8-0.4,1.2-0.2c0,0,2.2,0.9,2.2,0.9c0.4,0.1,0.7,0.6,0.7,1v1.4c0,0.7,0.6,1.2,1.2,1.2h5.7
		c0.7,0,1.2-0.6,1.2-1.2v-1.4c0-0.4,0.3-0.8,0.7-1c0,0,2.2-0.9,2.2-0.9c0.4-0.2,0.9-0.1,1.2,0.2l1,1c0.2,0.2,0.5,0.4,0.9,0.4
		c0.3,0,0.6-0.1,0.9-0.4l4-4c0.2-0.2,0.4-0.5,0.4-0.9c0-0.3-0.1-0.6-0.4-0.9l-1-1c-0.3-0.3-0.4-0.8-0.2-1.2c0,0,0.9-2.2,0.9-2.2
		c0.1-0.4,0.6-0.7,1-0.7h1.4c0.7,0,1.2-0.6,1.2-1.2v-5.7C61.5,39.6,60.9,39.1,60.3,39.1L60.3,39.1z M43.3,48.8
		c-3.2,0-5.7-2.6-5.7-5.7c0-3.2,2.6-5.7,5.7-5.7c3.2,0,5.7,2.6,5.7,5.7C49,46.3,46.4,48.8,43.3,48.8z"/>
	
		<linearGradient id="path2664_00000142868897381380421040000002570610638871592858_" gradientUnits="userSpaceOnUse" x1="2536.511" y1="-1311.3463" x2="2536.511" y2="-1393.4653" gradientTransform="matrix(0.2727 0 0 -0.2722 -648.391 -324.7817)">
		<stop  offset="0" style="stop-color:#DADADA"/>
		<stop  offset="1" style="stop-color:#CCCCCC"/>
	</linearGradient>
	
		<linearGradient id="path2664_00000106828756112679356850000011863837126430533287_" gradientUnits="userSpaceOnUse" x1="2537.2646" y1="-1394.8846" x2="2535.7708" y2="-1310.6797" gradientTransform="matrix(0.2727 0 0 -0.2722 -648.391 -324.7817)">
		<stop  offset="0" style="stop-color:#FFFFFF"/>
		<stop  offset="1" style="stop-color:#959595"/>
	</linearGradient>
	
		<path id="path2664" style="fill:url(#path2664_00000142868897381380421040000002570610638871592858_);stroke:url(#path2664_00000106828756112679356850000011863837126430533287_);stroke-width:0.8471;" d="
		M43.3,32.1c-6.3,0-11.3,5.1-11.3,11.3c0,6.2,5.1,11.3,11.3,11.3c6.3,0,11.3-5.1,11.3-11.3C54.6,37.1,49.5,32.1,43.3,32.1z
		 M43.3,51.7c-4.6,0-8.3-3.7-8.3-8.3s3.7-8.3,8.3-8.3c4.6,0,8.3,3.7,8.3,8.3S47.9,51.7,43.3,51.7z"/>
	
		<linearGradient id="path2666_00000017486068995300220610000009078331704209885315_" gradientUnits="userSpaceOnUse" x1="2082.5662" y1="-1062.2224" x2="2082.5662" y2="-1143.7694" gradientTransform="matrix(0.3147 0 0 -0.3142 -612.1243 -303.6222)">
		<stop  offset="0" style="stop-color:#D9D9D9"/>
		<stop  offset="1" style="stop-color:#CCCCCC"/>
	</linearGradient>
	
		<linearGradient id="path2666_00000152965428070078748520000002832945462712498606_" gradientUnits="userSpaceOnUse" x1="2082.5146" y1="-1062.9558" x2="2082.6155" y2="-1142.7308" gradientTransform="matrix(0.3147 0 0 -0.3142 -612.1243 -303.6222)">
		<stop  offset="0" style="stop-color:#D9D9D9"/>
		<stop  offset="1" style="stop-color:#CCCCCC"/>
	</linearGradient>
	
		<path id="path2666" style="fill:url(#path2666_00000017486068995300220610000009078331704209885315_);stroke:url(#path2666_00000152965428070078748520000002832945462712498606_);stroke-width:0.8471;" d="
		M43.3,33.4c-5.4,0-9.8,4.4-9.8,9.7c0,5.4,4.4,9.7,9.8,9.7c5.4,0,9.8-4.4,9.8-9.7C53,37.8,48.7,33.4,43.3,33.4z M43.3,49.6
		c-3.6,0-6.5-2.9-6.5-6.4c0-3.6,2.9-6.4,6.5-6.4c3.6,0,6.5,2.9,6.5,6.4C49.7,46.7,46.8,49.6,43.3,49.6z"/>
	<path id="path2668" class="st9" d="M54,43.3c0,6-4.8,10.9-10.6,10.9c-5.9,0-10.6-4.9-10.6-10.9c0,0,0,0,0,0c0-6,4.8-10.9,10.6-10.9
		S54,37.3,54,43.3z"/>
</g>
</svg>
