<?xml version="1.0" encoding="utf-8"?>
<!-- Generator: Adobe Illustrator 28.3.0, SVG Export Plug-In . SVG Version: 6.00 Build 0)  -->
<svg version="1.1" id="Layer_1" xmlns="http://www.w3.org/2000/svg" xmlns:xlink="http://www.w3.org/1999/xlink" x="0px" y="0px"
	 viewBox="0 0 24 24" style="enable-background:new 0 0 24 24;" xml:space="preserve">
<style type="text/css">
	
		.st0{fill-rule:evenodd;clip-rule:evenodd;fill:#A6CCA6;stroke:#696B67;stroke-width:0.8785;stroke-linecap:round;stroke-linejoin:round;}
	
		.st1{fill-rule:evenodd;clip-rule:evenodd;fill:#72B072;stroke:#41433F;stroke-width:0.878;stroke-linecap:round;stroke-linejoin:round;}
</style>
<g>
	<path class="st0" d="M10.2,4.8c-2.5,0-4.6,1.1-5.5,3.7c-0.9,2.6,1,7.2,5.2,5.1c6.9-3.4,6.9,0.8,8.7,0.8c2.1,0,4.3-1.5,4.3-3.4
		c0-1.7,0.1-3.3-0.9-4.3c-1.7-1.7-2.6,0.9-7.3-1C13.3,5.1,11.7,4.8,10.2,4.8z"/>
	<path class="st1" d="M6.8,9.5c-2.5,0-4.6,1.1-5.5,3.7c-0.9,2.6,1,7.2,5.2,5.1c6.9-3.4,6.9,0.8,8.7,0.8c2.1,0,4.3-1.5,4.3-3.4
		c0-1.7,0.1-3.3-0.9-4.3c-1.7-1.7-2.6,0.9-7.3-1C9.9,9.9,8.3,9.5,6.8,9.5z"/>
</g>
</svg>
