<?xml version="1.0" encoding="utf-8"?>
<!-- Generator: Adobe Illustrator 26.2.1, SVG Export Plug-In . SVG Version: 6.00 Build 0)  -->
<svg version="1.1" id="Layer_1" xmlns="http://www.w3.org/2000/svg" xmlns:xlink="http://www.w3.org/1999/xlink" x="0px" y="0px"
	 viewBox="0 0 64 64" style="enable-background:new 0 0 64 64;" xml:space="preserve">
<style type="text/css">
	.st0{fill:#3D88E1;stroke:#000000;stroke-miterlimit:10;}
	.st1{fill:#D55358;stroke:#000000;stroke-miterlimit:10;}
	.st2{display:none;}
	.st3{display:inline;}
	.st4{fill:none;stroke:#808080;stroke-width:0.25;}
	.st5{display:inline;fill:none;stroke:#000000;stroke-miterlimit:10;}
</style>
<g id="SVGRoot" xmlns:cc="http://creativecommons.org/ns#" xmlns:dc="http://purl.org/dc/elements/1.1/" xmlns:inkscape="http://www.inkscape.org/namespaces/inkscape" xmlns:rdf="http://www.w3.org/1999/02/22-rdf-syntax-ns#" xmlns:sodipodi="http://sodipodi.sourceforge.net/DTD/sodipodi-0.dtd" xmlns:svg="http://www.w3.org/2000/svg">
	
		<sodipodi:namedview  bordercolor="#666666" borderopacity="1.0" id="base" inkscape:current-layer="layer1" inkscape:cx="9.3247571" inkscape:cy="53.238203" inkscape:document-rotation="0" inkscape:document-units="px" inkscape:object-paths="true" inkscape:pageopacity="0.0" inkscape:pageshadow="2" inkscape:snap-bbox="true" inkscape:snap-global="true" inkscape:snap-grids="false" inkscape:snap-nodes="true" inkscape:snap-others="false" inkscape:window-height="847" inkscape:window-maximized="0" inkscape:window-width="1252" inkscape:window-x="2225" inkscape:window-y="208" inkscape:zoom="5.0716018" pagecolor="#ffffff" showgrid="false" showguides="false">
		<inkscape:grid  empspacing="4" id="grid2640" type="xygrid"></inkscape:grid>
	</sodipodi:namedview>
	<polygon class="st0" points="32,24.6 32,33.5 38.2,33.5 38.2,43.5 32,43.5 32,39.6 18.4,39.6 18.4,36.1 13.6,36.1 13.6,26.2 
		0.5,26.2 0.5,0.5 21.8,0.5 21.8,17.5 38.2,17.5 38.2,24.6 	"/>
	<polygon class="st1" points="63.5,0.5 63.5,47.9 55.1,47.9 55.1,21.3 47.9,21.3 47.9,43.5 38.2,43.5 38.2,33.5 32,33.5 32,24.6 
		38.2,24.6 38.2,17.5 21.8,17.5 21.8,0.5 	"/>
	<polygon class="st0" points="63.5,47.9 63.5,63.5 17.5,63.5 17.5,55.3 42.8,55.3 42.8,50.2 32,50.2 32,43.5 47.9,43.5 47.9,21.3 
		55.1,21.3 55.1,47.9 	"/>
	<polygon class="st1" points="42.8,50.2 42.8,55.3 17.5,55.3 17.5,63.5 0.5,63.5 0.5,26.2 13.6,26.2 13.6,36.1 18.4,36.1 18.4,39.6 
		32,39.6 32,50.2 	"/>
</g>
<g id="Layer_2_00000026151946551848755310000011320895226461100172_" class="st2">
	<g id="g2324" class="st3">
		<path id="path1979" class="st4" d="M0,4.6h64"/>
		<path id="path1981" class="st4" d="M0,9.6h64"/>
		<path id="path1983" class="st4" d="M0,14.6h64"/>
		<path id="path1985" class="st4" d="M0,19.6h64"/>
		<path id="path1987" class="st4" d="M0,24.6h64"/>
		<path id="path1989" class="st4" d="M0,29.6h64"/>
		<path id="path1991" class="st4" d="M0,34.6h64"/>
		<path id="path1993" class="st4" d="M0,39.6h64"/>
		<path id="path1995" class="st4" d="M0,44.6h64"/>
		<path id="path1997" class="st4" d="M0,49.6h64"/>
		<path id="path1999" class="st4" d="M0,54.6h64l0,0"/>
		<path id="path2001" class="st4" d="M0,59.6h64"/>
		<path id="path1979-7" class="st4" d="M59.6,0v64"/>
		<path id="path1981-6" class="st4" d="M54.6,0v64"/>
		<path id="path1983-2" class="st4" d="M49.6,0v64"/>
		<path id="path1985-7" class="st4" d="M44.6,0v64"/>
		<path id="path1987-0" class="st4" d="M39.6,0v64"/>
		<path id="path1989-3" class="st4" d="M34.6,0v64"/>
		<path id="path1991-9" class="st4" d="M29.6,0v64"/>
		<path id="path1993-9" class="st4" d="M24.6,0v64"/>
		<path id="path1995-9" class="st4" d="M19.6,0v64"/>
		<path id="path1997-1" class="st4" d="M14.6,0v64"/>
		<path id="path1999-7" class="st4" d="M9.6,0v64l0,0"/>
		<path id="path2001-2" class="st4" d="M4.6,0v64"/>
	</g>
	<rect x="0.5" y="0.5" class="st5" width="63" height="63"/>
</g>
</svg>
