<?xml version="1.0" encoding="utf-8"?>
<!-- Generator: Adobe Illustrator 26.3.1, SVG Export Plug-In . SVG Version: 6.00 Build 0)  -->
<svg version="1.1" id="Layer_1" xmlns="http://www.w3.org/2000/svg" xmlns:xlink="http://www.w3.org/1999/xlink" x="0px" y="0px"
	 viewBox="0 0 24 24" style="enable-background:new 0 0 24 24;" xml:space="preserve">
<style type="text/css">
	.st0{fill:none;stroke:#727272;stroke-dasharray:1,2;}
	.st1{fill:#E5E5E5;stroke:#727272;}
	.st2{fill:#835193;}
	.st3{fill:#6B4405;}
	.st4{fill:#CCCCCC;}
</style>
<path class="st0" d="M2.5,2.5h17v17h-17V2.5z"/>
<path class="st1" d="M2.5,2.5h3v3h-3V2.5z M16.5,2.5h3v3h-3V2.5z M16.5,16.5h3v3h-3V16.5z M2.5,16.5h3v3h-3V16.5z"/>
<path class="st2" d="M6.6,10.2C5.5,9.2,4.5,4,4.5,4s1.9,2.1,4.9,3c1.5,0.4,1.4,2.5,0.6,3.4C9.3,11.3,7.7,11.2,6.6,10.2"/>
<path class="st3" d="M22.6,20.3c0.1,0.5-0.9,1.6-1.4,1.6c-2.3,0.2-10.6-9.6-10.6-9.6l1.4-1.6C12,10.8,22.4,18,22.6,20.3"/>
<path class="st4" d="M10.5,9.4L9.1,11l1.6,1.4l1.4-1.6L10.5,9.4z"/>
</svg>
