<?xml version="1.0" encoding="UTF-8" standalone="no"?>
<svg
   height="24"
   width="24"
   version="1.1"
   id="svg8"
   sodipodi:docname="planmetrics.svg"
   inkscape:version="1.3.2 (091e20e, 2023-11-25)"
   xmlns:inkscape="http://www.inkscape.org/namespaces/inkscape"
   xmlns:sodipodi="http://sodipodi.sourceforge.net/DTD/sodipodi-0.dtd"
   xmlns="http://www.w3.org/2000/svg"
   xmlns:svg="http://www.w3.org/2000/svg">
  <defs
     id="defs8">
    <linearGradient
       id="a-2"
       gradientTransform="matrix(-0.08352,0.68021,0.6768,0.0831,-7.0983369,-217.5825)"
       gradientUnits="userSpaceOnUse"
       x1="304.76001"
       x2="335.29999"
       y1="64.294998"
       y2="81.926003">
      <stop
         offset="0"
         stop-color="#d3d7cf"
         id="stop5" />
      <stop
         offset=".183"
         stop-color="#babdb6"
         id="stop6" />
      <stop
         offset=".319"
         stop-color="#fff"
         id="stop7" />
      <stop
         offset=".876"
         stop-color="#babdb6"
         id="stop8" />
      <stop
         offset="1"
         stop-color="#eeeeec"
         id="stop9" />
    </linearGradient>
    <linearGradient
       id="b"
       gradientTransform="matrix(-0.26413,0.20666,0.26875,0.3456,0.0236631,-9.3075)"
       gradientUnits="userSpaceOnUse"
       x1="-6.3080001"
       x2="-9.7749996"
       y1="44.229"
       y2="44.139999">
      <stop
         offset="0"
         id="stop3" />
      <stop
         offset="1"
         stop-opacity="0"
         id="stop4" />
    </linearGradient>
    <linearGradient
       id="c"
       gradientTransform="matrix(-0.52251313,0.40834259,0.22789198,0.29296415,54.481711,-45.328735)"
       gradientUnits="userSpaceOnUse"
       x1="97.442001"
       x2="90.221001"
       y1="35.152"
       y2="35.078999">
      <stop
         offset="0"
         stop-color="#f8e27e"
         id="stop1-2" />
      <stop
         offset="1"
         stop-color="#e3d189"
         id="stop2-6" />
    </linearGradient>
  </defs>
  <sodipodi:namedview
     id="namedview8"
     pagecolor="#ffffff"
     bordercolor="#000000"
     borderopacity="0.25"
     inkscape:showpageshadow="2"
     inkscape:pageopacity="0.0"
     inkscape:pagecheckerboard="0"
     inkscape:deskcolor="#d1d1d1"
     inkscape:zoom="8.729956"
     inkscape:cx="0.97365897"
     inkscape:cy="12.371196"
     inkscape:window-width="1312"
     inkscape:window-height="449"
     inkscape:window-x="2883"
     inkscape:window-y="471"
     inkscape:window-maximized="0"
     inkscape:current-layer="svg8" />
  <linearGradient
     id="a"
     gradientUnits="userSpaceOnUse"
     x1="3.123"
     x2="8.275"
     y1="12.47"
     y2="14.921">
    <stop
       offset="0"
       stop-color="#bfbfbf"
       id="stop1" />
    <stop
       offset="1"
       stop-color="#e1e1e1"
       id="stop2" />
  </linearGradient>
  <path
     d="m21.221 4.805-.983.438-3.164-.43-2.547.128-4.647-.551-3.426 2.206-1.444-.013-1.161 4.66-2.874 4.437 3.144.064 9.54 2.573 7.85-.564z"
     fill="url(#a)"
     id="path2" />
  <g
     fill="none"
     stroke="#aaa"
     stroke-width=".5"
     id="g4">
    <path
       d="m13.053 4.715-3.673 3.635-2.66 3.262-.99 1.817-1.55 2.315m13.077-10.703-4.394 5.173-1.863 2.722-.952 4.106m10.19-11.799-.482 3.423-2.192 3.091-2.156 1.624-.758 2.046-.736 2.89"
       id="path3" />
    <path
       d="m4.06 11.594 2.661.018 4.279 1.324c2.195-.35 4.378-.78 6.565-1.179l3.63 3.249m-14.978-8.12 4.044.6 2.682 2.523 6.813-1.343 1.794 1.944"
       id="path4" />
  </g>
  <path
     d="m21.221 4.805-1.415.33-2.732-.322-2.547.128-4.647-.551-3.426 2.206-1.444-.013-1.161 4.66-2.874 4.437 3.144.064 9.54 2.573 7.85-.564z"
     fill="none"
     stroke="#9a9a9a"
     stroke-linecap="round"
     stroke-linejoin="round"
     id="path5" />
  <g
     id="g5"
     transform="matrix(0.77384356,0,0,0.77384356,6.4350977,14.699222)">
    <path
       d="m 3.4016631,-3.6945 c -0.043,-0.663 0.49,-0.194 0.678,0 0.794,0.575 1.572,1.174 2.375,1.734 0.561,0.199 1.101,-0.241 1.475,-0.613 0.535,-0.598 1.057,-1.37 0.96,-2.21 -0.078,-0.427 -0.526,-0.586 -0.821,-0.842 -0.735,-0.542 -1.475,-1.08 -2.206,-1.626 0.038,-0.415 0.713,-0.333 1.046,-0.351 1.394,0.025 2.913,0.48 3.7539999,1.663 0.692,0.963 0.849,2.253 0.5,3.376 0.192,1.05 0.58,2.078 1.242,2.923 l -2.4499999,1.801 c -0.576,-0.751 -1.29,-1.404 -2.124,-1.857 -1.237,0.18 -2.501,-0.402 -3.248,-1.387 -0.59,-0.755 -1.027,-1.66 -1.181,-2.607 z"
       fill="url(#a)"
       fill-rule="evenodd"
       stroke="#3b3b3b"
       stroke-width="0.795"
       stroke-linecap="round"
       stroke-linejoin="round"
       stroke-dashoffset="0.361"
       id="path14"
       style="fill:url(#a-2)" />
    <path
       d="m 10.231663,0.4505 a 0.665,0.665 0 0 0 -0.124,0.932 l 4.085,5.983 c 0.224,0.288 0.992,0.06 1.285,-0.17 0.292,-0.23 0.701,-0.92 0.477,-1.208 l -4.786,-5.432 a 0.66,0.66 0 0 0 -0.931,-0.105 z"
       opacity="0.231"
       fill="url(#b)"
       id="path15"
       style="fill:url(#b)" />
    <path
       d="m 3.6486631,-3.6605 c 0.003,0.013 0.02,0.008 0.02,0 l 2.541,1.866 c 0.343,0.251 0.795,0.156 1.187,-0.05 0.396,-0.206 0.798,-0.552 1.135,-1.025 0.338,-0.474 0.536,-0.991 0.606,-1.436 0.07,-0.444 -0.006,-0.878 -0.335,-1.12 l -2.562,-1.869 c 0,-0.01 0.004,-0.023 0.003,-0.022 -0.017,0.013 0.01,0.008 0.021,0 1.245,-0.133 2.626,0.185 3.485,0.816 1.1759999,0.865 1.5969999,2.42 1.1589999,3.854 -0.44,1.428 -1.8569999,2.52 -3.0999999,2.684 -0.803,0.1 -1.63,-0.086 -2.31,-0.586 -0.857,-0.63 -1.585,-1.874 -1.85,-3.119 z"
       fill="#f0f3f2"
       fill-rule="evenodd"
       id="path16" />
    <path
       d="m 11.316034,-2.132087 7.418568,8.5955043 c 0.441351,0.5683362 -0.02478,1.6554534 -1.038336,2.446788 -1.012784,0.7921089 -2.17888,0.9810381 -2.621005,0.4134762 L 8.5711406,0.012724 11.317583,-2.132087 Z m 4.912934,9.1530003 c -0.503295,0.3941187 -0.6086,1.1087976 -0.356953,1.4316807 0.250873,0.3228831 0.992653,0.3755355 1.496722,-0.017809 0.503295,-0.3941187 0.583822,-1.0894401 0.332949,-1.4123232 -0.251647,-0.3228831 -0.968649,-0.394893 -1.472718,0 z"
       fill="url(#c)"
       stroke="#3b3b3b"
       stroke-width="0.671318"
       stroke-linecap="round"
       stroke-linejoin="round"
       stroke-dashoffset="0.7"
       id="path17"
       style="fill:url(#c)" />
    <path
       d="m 10.103663,2.0635 2.28,-1.565 0.296,0.336 -2.28,1.564 z"
       fill="#ffffff"
       fill-opacity="0.578"
       stroke="#3b3b3b"
       stroke-width="0.994"
       id="path18" />
  </g>
  <g
     id="g8"
     transform="matrix(1.0024058,0,0,1.0024058,21.043304,-0.00481155)">
    <path
       d="M -17.5,2.5001245 V 21.490124 h 4.016 V 7.5511245 l 4.96,0.036 v -5.05 l -4.96,-0.036 z"
       fill="#ffe680"
       stroke="#d4aa00"
       stroke-linecap="square"
       id="path6" />
    <path
       d="m -16.971,2.5641245 3.973,3.44 -0.85,0.766 -3.972,-3.44 z"
       fill="#d4aa00"
       fill-opacity="0.647"
       id="path7" />
    <path
       d="m -17.998,7.0041245 h 3 v 1 h -3 z m 0,2 h 3 v 1.0000005 h -3 z m 0,2.0000005 h 3 v 1 h -3 z m 0,2 h 3 v 1 h -3 z m 0,2 h 3 v 0.999999 h -3 z"
       fill="#b29000"
       id="path8" />
    <path
       d="m -17.974,16.996124 h 3 v 1 h -3 z"
       fill="#b29000"
       id="path10" />
  </g>
</svg>
