<?xml version="1.0" encoding="utf-8"?>
<!-- Generator: Adobe Illustrator 28.3.0, SVG Export Plug-In . SVG Version: 6.00 Build 0)  -->
<svg version="1.1" id="Layer_1" xmlns="http://www.w3.org/2000/svg" xmlns:xlink="http://www.w3.org/1999/xlink" x="0px" y="0px"
	 viewBox="0 0 24 24" style="enable-background:new 0 0 24 24;" xml:space="preserve">
<style type="text/css">
	
		.st0{fill-rule:evenodd;clip-rule:evenodd;fill:#72B072;stroke:#41433F;stroke-width:0.878;stroke-linecap:round;stroke-linejoin:round;}
	
		.st1{opacity:0.8;fill:#E6E6E6;stroke:#505050;stroke-width:0.752;stroke-linecap:round;stroke-linejoin:round;enable-background:new    ;}
	.st2{fill-rule:evenodd;clip-rule:evenodd;fill:#FFCC30;stroke:#505050;stroke-width:1.043;stroke-linejoin:round;}
	.st3{fill-rule:evenodd;clip-rule:evenodd;stroke:#505050;stroke-width:1.043;stroke-linejoin:round;}
</style>
<path class="st0" d="M7.2,2.7c-2.5,0-4.6,1.1-5.5,3.7c-0.9,2.6,1,7.2,5.2,5.1c6.9-3.4,6.9,0.8,8.7,0.8c2.1,0,4.3-1.5,4.3-3.4
	c0-1.7,0.1-3.3-0.9-4.3c-1.7-1.7-2.6,0.9-7.3-1C10.3,3,8.7,2.7,7.2,2.7z"/>
<g>
	<path class="st1" d="M23.5,8.9c0,4.6-3.7,8.3-8.3,8.3l0,0c-4.6,0-8.3-3.7-8.3-8.3l0,0c0-4.6,3.7-8.3,8.3-8.3l0,0
		C19.7,0.5,23.5,4.3,23.5,8.9C23.5,8.9,23.5,8.9,23.5,8.9z"/>
	<path class="st2" d="M7.8,14.1c0,2.1,2.1,2.1,2.1,2.1l-7.3,7.3l-2.1-2.1L7.8,14.1z"/>
	<path class="st3" d="M6.3,15.7l2.1-2.1l2.1,2.1l-2.1,2.1L6.3,15.7z"/>
</g>
</svg>
